<svg width="65" height="65" viewBox="0 0 65 65" fill="none" xmlns="http://www.w3.org/2000/svg">
<path d="M0 24C0 15.5992 0 11.3988 1.6349 8.19014C3.073 5.36771 5.36771 3.073 8.19014 1.6349C11.3988 0 15.5992 0 24 0H41C49.4008 0 53.6012 0 56.8099 1.6349C59.6323 3.073 61.927 5.36771 63.3651 8.19014C65 11.3988 65 15.5992 65 24V41C65 49.4008 65 53.6012 63.3651 56.8099C61.927 59.6323 59.6323 61.927 56.8099 63.3651C53.6012 65 49.4008 65 41 65H24C15.5992 65 11.3988 65 8.19014 63.3651C5.36771 61.927 3.073 59.6323 1.6349 56.8099C0 53.6012 0 49.4008 0 41V24Z" fill="#45A4DE"/>
<path d="M32.5 39C36.0899 39 39 36.0899 39 32.5C39 28.9101 36.0899 26 32.5 26C28.9101 26 26 28.9101 26 32.5C26 36.0899 28.9101 39 32.5 39Z" fill="#F4F4F4"/>
<path fill-rule="evenodd" clip-rule="evenodd" d="M43.2875 28.0346C42.6787 28.1188 42.3742 28.1609 42.2017 28.2904C42.0334 28.4168 41.9473 28.5458 41.8949 28.7497C41.8413 28.9586 41.9305 29.3003 42.109 29.9835C42.3188 30.7872 42.4306 31.6305 42.4306 32.4999C42.4306 36.4138 40.1663 39.7989 36.8762 41.4167C36.3769 41.6622 36.1272 41.785 35.9847 41.8991C35.8369 42.0175 35.7628 42.097 35.6552 42.2528C35.5514 42.4031 35.4705 42.602 35.3088 42.9997L32.9726 48.746C32.7313 49.3394 32.6107 49.6362 32.6711 49.8943C32.7209 50.1072 32.879 50.3193 33.0688 50.4278C33.2989 50.5594 33.5949 50.5308 34.1869 50.4735C43.2478 49.5963 50.5556 41.785 50.5556 32.4999C50.5556 31.4215 50.461 30.3651 50.2798 29.3387C50.1597 28.6585 50.0996 28.3184 49.8681 28.0041C49.6814 27.7506 49.3531 27.5116 49.0546 27.4118C48.6844 27.2881 48.2915 27.3424 47.5056 27.4511L43.2875 28.0346Z" fill="url(#paint0_linear)"/>
<path fill-rule="evenodd" clip-rule="evenodd" d="M23.4023 25.2272C23.7797 25.7124 23.9684 25.955 24.1668 26.0396C24.3605 26.1222 24.5152 26.1323 24.7179 26.0757C24.9257 26.0176 25.177 25.7696 25.6794 25.2734C26.2705 24.6898 26.945 24.1714 27.6979 23.7367C31.0875 21.7797 35.1512 22.0481 38.1972 24.0885C38.6595 24.3982 38.8907 24.553 39.0608 24.6194C39.2372 24.6882 39.3432 24.7126 39.5319 24.7279C39.7139 24.7427 39.9266 24.7132 40.3519 24.6544L46.4964 23.8045C47.131 23.7168 47.4483 23.6729 47.6417 23.4915C47.8011 23.3419 47.9057 23.0989 47.9048 22.8803C47.9038 22.6152 47.7309 22.3732 47.3853 21.8892C42.0952 14.4808 31.6765 12.0577 23.6354 16.7003C22.7015 17.2395 21.8339 17.8495 21.0357 18.5197C20.5066 18.9638 20.2421 19.1859 20.0857 19.5435C19.9595 19.8319 19.9166 20.2357 19.9795 20.5442C20.0574 20.9266 20.301 21.2397 20.788 21.866L23.4023 25.2272Z" fill="url(#paint1_linear)"/>
<path fill-rule="evenodd" clip-rule="evenodd" d="M30.8101 44.2379C31.0416 43.6686 31.1574 43.3839 31.1315 43.1697C31.1061 42.9607 31.0376 42.8217 30.8871 42.6744C30.733 42.5235 30.3925 42.4299 29.7116 42.2428C28.9107 42.0228 28.1245 41.6979 27.3715 41.2632C23.982 39.3062 22.1826 35.6527 22.4266 31.9945C22.4636 31.4394 22.4821 31.1618 22.4545 30.9812C22.4259 30.7941 22.3941 30.6901 22.3129 30.519C22.2347 30.354 22.1029 30.1845 21.8393 29.8456L18.031 24.9492C17.6377 24.4436 17.441 24.1907 17.1873 24.114C16.978 24.0507 16.7153 24.0815 16.5264 24.1916C16.2974 24.3251 16.1742 24.5958 15.9278 25.1371C12.1571 33.4227 15.2679 43.6571 23.309 48.2996C24.243 48.8388 25.2051 49.2851 26.1846 49.6413C26.8338 49.8774 27.1583 49.9955 27.5462 49.9522C27.8591 49.9172 28.2302 49.7524 28.4659 49.5437C28.7582 49.285 28.9076 48.9176 29.2064 48.1826L30.8101 44.2379Z" fill="url(#paint2_linear)"/>
<defs>
<linearGradient id="paint0_linear" x1="47.5" y1="28" x2="30" y2="55.5" gradientUnits="userSpaceOnUse">
<stop stop-color="white" stop-opacity="0.65"/>
<stop offset="1" stop-color="#F4F4F4" stop-opacity="0.2"/>
</linearGradient>
<linearGradient id="paint1_linear" x1="21.5" y1="21.0002" x2="53" y2="24.0002" gradientUnits="userSpaceOnUse">
<stop stop-color="white" stop-opacity="0.65"/>
<stop offset="1" stop-color="#F4F4F4" stop-opacity="0.2"/>
</linearGradient>
<linearGradient id="paint2_linear" x1="29" y1="47.5" x2="14" y2="20.5" gradientUnits="userSpaceOnUse">
<stop stop-color="white" stop-opacity="0.65"/>
<stop offset="1" stop-color="#F4F4F4" stop-opacity="0.2"/>
</linearGradient>
</defs>
</svg>
