<svg width="41" height="41" viewBox="0 0 41 41" fill="none" xmlns="http://www.w3.org/2000/svg">
<circle cx="20.5" cy="20.5" r="20.5" fill="#F9F9F9"/>
<g clip-path="url(#clip0_3240_23953)">
<path d="M30.61 12.1571L22.673 7.57972C21.3327 6.80674 19.6673 6.80679 18.327 7.57972L10.39 12.1571C9.0471 12.9315 8.21289 14.3758 8.21289 15.9261V25.0738C8.21289 26.6242 9.0471 28.0684 10.39 28.8428L18.327 33.4202C19.6675 34.1934 21.3329 34.1931 22.673 33.4202L30.61 28.8428C31.9529 28.0684 32.7871 26.6242 32.7871 25.0738V15.9261C32.7871 14.3758 31.9529 12.9316 30.61 12.1571ZM30.6777 25.0738C30.6777 25.8724 30.2481 26.6164 29.5563 27.0152L21.6193 31.5926C20.9288 31.9909 20.0711 31.9909 19.3807 31.5926L11.4437 27.0152C10.7519 26.6163 10.3223 25.8724 10.3223 25.0738V15.9261C10.3223 15.1276 10.7519 14.3837 11.4437 13.9848L19.3807 9.40738C20.0712 9.00913 20.9292 9.00929 21.6193 9.40738L29.5563 13.9847C30.2481 14.3837 30.6777 15.1275 30.6777 15.9261V25.0738Z" fill="#0088CC"/>
<path d="M24.9453 21.5H16C15.4175 21.5 14.9453 21.9722 14.9453 22.5548C14.9453 23.1375 15.4175 23.6097 16 23.6097H24.9453C25.5278 23.6097 26 23.1375 26 22.5548C26 21.9722 25.5278 21.5 24.9453 21.5Z" fill="#0088CC"/>
<path d="M24.9453 18H16C15.4175 18 14.9453 18.4722 14.9453 19.0548C14.9453 19.6375 15.4175 20.1097 16 20.1097H24.9453C25.5278 20.1097 26 19.6375 26 19.0548C26 18.4722 25.5278 18 24.9453 18Z" fill="#0088CC"/>
</g>
<defs>
<clipPath id="clip0_3240_23953">
<rect width="27" height="27" fill="white" transform="translate(7 7)"/>
</clipPath>
</defs>
</svg>
