<svg width="15" height="15" viewBox="0 0 15 15" fill="none" xmlns="http://www.w3.org/2000/svg">
<path d="M2.27871 9.16345C2.33262 9.23842 2.40078 9.30204 2.47928 9.35067C2.55779 9.3993 2.6451 9.43198 2.73624 9.44686C2.82738 9.46175 2.92055 9.45853 3.01045 9.4374C3.10034 9.41627 3.18519 9.37763 3.26015 9.32371L6.23115 7.18679C6.30617 7.13293 6.36985 7.06482 6.41855 6.98635C6.46725 6.90787 6.50002 6.82058 6.51498 6.72944C6.52994 6.63831 6.52681 6.54512 6.50576 6.45519C6.4847 6.36527 6.44614 6.28037 6.39228 6.20535C6.33842 6.13032 6.27031 6.06665 6.19184 6.01795C6.11336 5.96925 6.02607 5.93648 5.93493 5.92152C5.8438 5.90655 5.75061 5.90969 5.66068 5.93074C5.57076 5.95179 5.48586 5.99035 5.41084 6.04421L3.7623 7.22986C3.90263 4.64441 6.05009 2.58396 8.66982 2.58396C11.3801 2.58396 13.585 4.78884 13.585 7.4991C13.585 10.2094 11.3792 12.4148 8.66894 12.4148C7.98693 12.414 7.31252 12.2716 6.68836 11.9968C6.0642 11.7219 5.50389 11.3204 5.04287 10.8178C4.91696 10.6803 4.74155 10.5984 4.55524 10.5901C4.36893 10.5819 4.18698 10.648 4.04941 10.7739C3.91184 10.8998 3.82993 11.0752 3.82169 11.2615C3.81345 11.4478 3.87955 11.6298 4.00547 11.7674C4.98319 12.8357 6.29812 13.5359 7.73027 13.7508C9.16243 13.9657 10.6249 13.6823 11.8732 12.948C13.1214 12.2137 14.0796 11.073 14.5876 9.71685C15.0955 8.36065 15.1223 6.87117 14.6635 5.49757C14.2047 4.12397 13.2882 2.94956 12.0672 2.17081C10.8462 1.39207 9.39486 1.05621 7.9559 1.21942C6.51694 1.38263 5.17766 2.03502 4.16211 3.06745C3.14656 4.09988 2.51633 5.44973 2.37685 6.89119L1.28379 5.37127C1.17501 5.21975 1.01049 5.11765 0.826435 5.08743C0.642378 5.05722 0.453856 5.10135 0.302341 5.21013C0.150825 5.31891 0.0487285 5.48343 0.0185102 5.66748C-0.011708 5.85154 0.0324276 6.04006 0.141208 6.19158L2.27871 9.16345Z" fill="#979797"/>
</svg>
