<svg width="26" height="25" viewBox="0 0 26 25" fill="none" xmlns="http://www.w3.org/2000/svg">
<path d="M3.65217 4.1665C4.33756 4.1665 4.89321 3.60684 4.89321 2.9165C4.89321 2.22617 4.33756 1.6665 3.65217 1.6665C2.96679 1.6665 2.41113 2.22617 2.41113 2.9165C2.41113 3.60684 2.96679 4.1665 3.65217 4.1665ZM3.65217 2.4998C3.88065 2.4998 4.06584 2.68638 4.06584 2.91646C4.06584 3.14653 3.8806 3.33311 3.65217 3.33311C3.42374 3.33311 3.23851 3.14658 3.23851 2.9165C3.23851 2.68643 3.42374 2.4998 3.65217 2.4998Z" fill="#0088CC"/>
<path d="M6.96174 4.1665C7.64717 4.1665 8.20278 3.60684 8.20278 2.9165C8.20278 2.22617 7.64713 1.6665 6.96174 1.6665C6.27636 1.6665 5.7207 2.22617 5.7207 2.9165C5.7207 3.60684 6.27636 4.1665 6.96174 4.1665ZM6.96174 2.4998C7.19022 2.4998 7.37541 2.68638 7.37541 2.91646C7.37541 3.14653 7.19017 3.33311 6.96174 3.33311C6.73327 3.33311 6.54808 3.14653 6.54808 2.91646C6.54808 2.68638 6.73327 2.4998 6.96174 2.4998Z" fill="#0088CC"/>
<path d="M10.2703 4.1665C10.9557 4.1665 11.5114 3.60684 11.5114 2.9165C11.5114 2.22617 10.9557 1.6665 10.2703 1.6665C9.58495 1.6665 9.0293 2.22617 9.0293 2.9165C9.0293 3.60684 9.5849 4.1665 10.2703 4.1665ZM10.2703 2.4998C10.4988 2.4998 10.684 2.68638 10.684 2.91646C10.684 3.14653 10.4988 3.33311 10.2703 3.33311C10.0419 3.33311 9.85667 3.14653 9.85667 2.91646C9.85667 2.68638 10.0419 2.4998 10.2703 2.4998Z" fill="#0088CC"/>
<path d="M16.0614 4.1665H19.3708C20.0562 4.1665 20.6118 3.60684 20.6118 2.9165C20.6118 2.22617 20.0562 1.6665 19.3708 1.6665H16.0614C15.376 1.6665 14.8203 2.22617 14.8203 2.9165C14.8203 3.60684 15.376 4.1665 16.0614 4.1665ZM16.0614 2.4998H19.3708C19.5993 2.4998 19.7845 2.68638 19.7845 2.91646C19.7845 3.14653 19.5993 3.33311 19.3708 3.33311H16.0614C15.8329 3.33311 15.6477 3.14653 15.6477 2.91646C15.6477 2.68638 15.8329 2.4998 16.0614 2.4998Z" fill="#0088CC"/>
<path d="M5.30624 6.6665C5.07776 6.6665 4.89258 6.85308 4.89258 7.08315V20.4165C4.89258 20.6466 5.07781 20.8332 5.30624 20.8332C5.53472 20.8332 5.71991 20.6466 5.71991 20.4165V7.08315C5.71991 6.85303 5.53467 6.6665 5.30624 6.6665Z" fill="#0088CC"/>
<path d="M3.65212 7.08325H2.8248C2.59632 7.08325 2.41113 7.26982 2.41113 7.4999C2.41113 7.72998 2.59637 7.91655 2.8248 7.91655H3.65217C3.88065 7.91655 4.06584 7.73003 4.06584 7.4999C4.06584 7.26978 3.8806 7.08325 3.65212 7.08325Z" fill="#0088CC"/>
<path d="M6.96054 7.91655H11.511C11.7395 7.91655 11.9247 7.73003 11.9247 7.4999C11.9247 7.26977 11.7395 7.08325 11.511 7.08325H6.96054C6.73206 7.08325 6.54688 7.26982 6.54688 7.4999C6.54688 7.72998 6.73206 7.91655 6.96054 7.91655Z" fill="#0088CC"/>
<path d="M3.65212 9.1665H2.8248C2.59632 9.1665 2.41113 9.35308 2.41113 9.58315C2.41113 9.81328 2.59637 9.9998 2.8248 9.9998H3.65217C3.88065 9.9998 4.06584 9.81323 4.06584 9.58315C4.06584 9.35303 3.8806 9.1665 3.65212 9.1665Z" fill="#0088CC"/>
<path d="M6.96054 9.9998H13.5794C13.8079 9.9998 13.9931 9.81323 13.9931 9.58315C13.9931 9.35303 13.8079 9.1665 13.5794 9.1665H6.96054C6.73206 9.1665 6.54688 9.35308 6.54688 9.58315C6.54688 9.81328 6.73206 9.9998 6.96054 9.9998Z" fill="#0088CC"/>
<path d="M3.65212 11.2498H2.8248C2.59632 11.2498 2.41113 11.4363 2.41113 11.6664C2.41113 11.8965 2.59637 12.0831 2.8248 12.0831H3.65217C3.88065 12.0831 4.06584 11.8965 4.06584 11.6664C4.06584 11.4363 3.8806 11.2498 3.65212 11.2498Z" fill="#0088CC"/>
<path d="M6.96054 12.0831H9.44262C9.67109 12.0831 9.85628 11.8965 9.85628 11.6664C9.85628 11.4363 9.67109 11.2498 9.44262 11.2498H6.96054C6.73206 11.2498 6.54688 11.4363 6.54688 11.6664C6.54688 11.8965 6.73206 12.0831 6.96054 12.0831Z" fill="#0088CC"/>
<path d="M3.65212 13.3333H2.8248C2.59632 13.3333 2.41113 13.5198 2.41113 13.7499C2.41113 13.98 2.59637 14.1666 2.8248 14.1666H3.65217C3.88065 14.1666 4.06584 13.98 4.06584 13.7499C4.06584 13.5198 3.8806 13.3333 3.65212 13.3333Z" fill="#0088CC"/>
<path d="M6.96054 14.1666H11.511C11.7395 14.1666 11.9247 13.98 11.9247 13.7499C11.9247 13.5198 11.7395 13.3333 11.511 13.3333H6.96054C6.73206 13.3333 6.54688 13.5198 6.54688 13.7499C6.54688 13.98 6.73206 14.1666 6.96054 14.1666Z" fill="#0088CC"/>
<path d="M3.65212 15.4165H2.8248C2.59632 15.4165 2.41113 15.6031 2.41113 15.8332C2.41113 16.0633 2.59637 16.2498 2.8248 16.2498H3.65217C3.88065 16.2498 4.06584 16.0632 4.06584 15.8332C4.06584 15.603 3.8806 15.4165 3.65212 15.4165Z" fill="#0088CC"/>
<path d="M6.96054 16.2498H13.5794C13.8079 16.2498 13.9931 16.0632 13.9931 15.8332C13.9931 15.603 13.8079 15.4165 13.5794 15.4165H6.96054C6.73206 15.4165 6.54688 15.6031 6.54688 15.8332C6.54688 16.0633 6.73206 16.2498 6.96054 16.2498Z" fill="#0088CC"/>
<path d="M3.65212 17.4998H2.8248C2.59632 17.4998 2.41113 17.6863 2.41113 17.9164C2.41113 18.1465 2.59637 18.3331 2.8248 18.3331H3.65217C3.88065 18.3331 4.06584 18.1465 4.06584 17.9164C4.06584 17.6863 3.8806 17.4998 3.65212 17.4998Z" fill="#0088CC"/>
<path d="M3.65212 19.583H2.8248C2.59632 19.583 2.41113 19.7695 2.41113 19.9997C2.41113 20.2298 2.59637 20.4163 2.8248 20.4163H3.65217C3.88065 20.4163 4.06584 20.2297 4.06584 19.9997C4.06584 19.7696 3.8806 19.583 3.65212 19.583Z" fill="#0088CC"/>
<path d="M9.44262 19.583H6.96054C6.73206 19.583 6.54688 19.7695 6.54688 19.9997C6.54688 20.2298 6.73211 20.4163 6.96054 20.4163H9.44262C9.67109 20.4163 9.85628 20.2297 9.85628 19.9997C9.85628 19.7696 9.67109 19.583 9.44262 19.583Z" fill="#0088CC"/>
<path d="M15.234 9.9998H16.475C16.7035 9.9998 16.8887 9.81323 16.8887 9.58315C16.8887 9.35303 16.7035 9.1665 16.475 9.1665H15.234C15.0055 9.1665 14.8203 9.35308 14.8203 9.58315C14.8203 9.81328 15.0055 9.9998 15.234 9.9998Z" fill="#0088CC"/>
<path d="M22.2672 17.6388V2.5C22.2658 1.11987 21.1553 0.00136719 19.7851 0H3.23794C1.8677 0.00136719 0.757217 1.11987 0.755859 2.5V20C0.757217 21.3801 1.8677 22.4986 3.23794 22.5H11.2095L10.8496 23.125C10.6279 23.5119 10.6279 23.9885 10.8498 24.3753C11.0717 24.7622 11.4817 25.0003 11.9252 25H24.3356C24.7791 25.0003 25.1891 24.7622 25.411 24.3753C25.6329 23.9885 25.633 23.5119 25.4112 23.125L22.2672 17.6388ZM3.23794 0.83335H19.7851C20.699 0.83335 21.4398 1.57954 21.4398 2.5V5H1.58319V2.5C1.58324 1.57954 2.32408 0.83335 3.23794 0.83335ZM3.23794 21.6667C2.32408 21.6667 1.58324 20.9205 1.58324 20V5.83335H21.4399V16.1938L19.206 12.2917C18.9845 11.9041 18.5744 11.6653 18.1304 11.6653C17.6864 11.6653 17.2763 11.9042 17.0548 12.2917L16.4591 13.3333H13.1663C12.9378 13.3333 12.7526 13.5198 12.7526 13.75C12.7526 13.9801 12.9378 14.1666 13.1663 14.1666H15.9818L14.073 17.5H6.96106C6.73258 17.5 6.54739 17.6865 6.54739 17.9166C6.54739 18.1467 6.73263 18.3333 6.96106 18.3333H13.5957L12.88 19.5833H11.0978C10.8694 19.5833 10.6842 19.7698 10.6842 19.9999C10.6842 20.23 10.8694 20.4166 11.0978 20.4166H12.4026L11.6865 21.6666H3.23794V21.6667ZM24.6926 23.9583C24.6201 24.088 24.4834 24.1678 24.3356 24.1667H11.9252C11.7774 24.1667 11.6408 24.0873 11.567 23.9583C11.4931 23.8294 11.4931 23.6706 11.567 23.5417L17.7722 12.7083C17.846 12.5794 17.9826 12.5 18.1304 12.5C18.2782 12.5 18.4147 12.5794 18.4887 12.7083L24.6939 23.5417C24.769 23.6704 24.7686 23.8301 24.6926 23.9583Z" fill="#0088CC"/>
<path d="M18.1305 14.9998C17.902 14.9998 17.7168 15.1863 17.7168 15.4164V20.8331C17.7168 21.0632 17.902 21.2497 18.1305 21.2497C18.3589 21.2497 18.5441 21.0632 18.5441 20.8331V15.4165C18.5441 15.1863 18.3589 14.9998 18.1305 14.9998Z" fill="#0088CC"/>
<path d="M18.1305 22.9166C18.3589 22.9166 18.5442 22.73 18.5442 22.4999C18.5442 22.2698 18.3589 22.0833 18.1305 22.0833C17.902 22.0833 17.7168 22.2698 17.7168 22.4999C17.7168 22.73 17.902 22.9166 18.1305 22.9166Z" fill="#0088CC"/>
</svg>
