<svg width="41" height="42" viewBox="0 0 41 42" fill="none" xmlns="http://www.w3.org/2000/svg">
<ellipse cx="20.5" cy="20.6333" rx="20.5" ry="20.6333" fill="#F9F9F9"/>
<g clip-path="url(#clip0_3609_2619)">
<path d="M30.3971 12.1907L22.4601 7.58349C21.1198 6.80548 19.4544 6.80553 18.1141 7.58349L10.1771 12.1907C8.83421 12.9701 8 14.4237 8 15.9842V25.1914C8 26.7518 8.8342 28.2055 10.1771 28.9849L18.1141 33.5921C19.4546 34.3703 21.12 34.37 22.4601 33.5921L30.3971 28.9849C31.74 28.2055 32.5742 26.7518 32.5742 25.1914V15.9842C32.5742 14.4238 31.74 12.9701 30.3971 12.1907ZM30.4648 25.1914C30.4648 25.9952 30.0352 26.7439 29.3434 27.1454L21.4064 31.7526C20.7159 32.1534 19.8582 32.1534 19.1678 31.7526L11.2308 27.1454C10.5391 26.7439 10.1094 25.9952 10.1094 25.1914V15.9842C10.1094 15.1804 10.5391 14.4317 11.2308 14.0302L19.1678 9.42304C19.8583 9.0222 20.7163 9.02236 21.4065 9.42304L29.3434 14.0302C30.0352 14.4317 30.4648 15.1804 30.4648 15.9842V25.1914Z" fill="#0088CC"/>
<g clip-path="url(#clip1_3609_2619)">
<path d="M27.9184 19.4829L25.2546 15.3187C25.16 15.1683 24.9924 15.0752 24.8136 15.0752H16.1864C16.0139 15.0752 15.8446 15.1624 15.7458 15.3182L13.0816 19.4829C12.9565 19.6784 12.9757 19.9397 13.1359 20.1149L20.1154 27.7556C20.3226 27.9826 20.6798 27.9799 20.8846 27.7556L27.8642 20.1149C28.0204 19.944 28.0465 19.683 27.9184 19.4829ZM16.2822 16.4131L19.211 19.2426H14.4722L16.2822 16.4131ZM19.979 26.0615L14.7019 20.2845H19.979V26.0615ZM20.4999 19.0392L17.4754 16.1171H23.5246L20.4999 19.0392ZM21.0209 26.0617V20.2845H26.2981L21.0209 26.0617ZM21.7889 19.2426L24.7178 16.4131L26.5279 19.2426H21.7889Z" fill="#0088CC"/>
</g>
</g>
<defs>
<clipPath id="clip0_3609_2619">
<rect width="27" height="27.1756" fill="white" transform="translate(7 7.04565)"/>
</clipPath>
<clipPath id="clip1_3609_2619">
<rect width="15" height="15" fill="white" transform="translate(13 14)"/>
</clipPath>
</defs>
</svg>
