<svg width="26" height="25" viewBox="0 0 26 25" fill="none" xmlns="http://www.w3.org/2000/svg">
<path d="M20.5773 12.0833C20.2999 12.0852 20.0232 12.1104 19.75 12.1588V2.08335C19.7486 0.933301 18.8233 0.00136719 17.6815 0H2.78907C1.64731 0.00136719 0.722061 0.933301 0.720703 2.08335V15.4167C0.722061 16.5667 1.64731 17.4986 2.78912 17.5H6.53332C6.71211 19.6146 8.19583 21.3857 10.2354 21.9188V23.75C10.2354 24.4403 10.791 25 11.4764 25C12.1618 25 12.7174 24.4404 12.7174 23.75V21.9167C14.1948 21.5299 15.4145 20.4821 16.0269 19.0737C16.6392 20.4821 17.8589 21.5299 19.3363 21.9167V23.75C19.3363 24.4403 19.892 25 20.5774 25C21.2628 25 21.8184 24.4404 21.8184 23.75V21.9167C24.2348 21.2855 25.8091 18.9441 25.4943 16.4499C25.1795 13.9557 23.0736 12.0855 20.5773 12.0833ZM1.54803 15.4167V2.08335C1.54803 1.39302 2.10369 0.83335 2.78907 0.83335H17.6815C18.3669 0.83335 18.9226 1.39302 18.9226 2.08335V12.375C17.6268 12.8393 16.5789 13.822 16.0268 15.0908C15.1219 12.9893 12.9139 11.777 10.6699 12.1494C8.42586 12.5219 6.72089 14.3838 6.53328 16.6667H2.78907C2.10369 16.6667 1.54803 16.107 1.54803 15.4167ZM11.8901 23.75C11.8901 23.9801 11.7048 24.1667 11.4764 24.1667C11.2479 24.1667 11.0627 23.9801 11.0627 23.75V22.0621C11.1997 22.0737 11.3366 22.0833 11.4764 22.0833C11.6162 22.0833 11.7532 22.0737 11.8901 22.0621V23.75ZM11.4763 21.25C9.19167 21.25 7.33956 19.3845 7.33956 17.0833C7.33956 14.7822 9.19167 12.9167 11.4763 12.9167C13.761 12.9167 15.6131 14.7822 15.6131 17.0833C15.6107 19.3835 13.76 21.2475 11.4763 21.25ZM20.991 23.75C20.991 23.9801 20.8058 24.1667 20.5773 24.1667C20.3489 24.1667 20.1637 23.9801 20.1637 23.75V22.0621C20.3006 22.0737 20.4375 22.0833 20.5773 22.0833C20.7171 22.0833 20.8541 22.0737 20.991 22.0621V23.75ZM20.5773 21.25C18.2927 21.25 16.4406 19.3845 16.4406 17.0833C16.4406 14.7822 18.2927 12.9167 20.5773 12.9167C22.862 12.9167 24.7141 14.7822 24.7141 17.0833C24.7116 19.3835 22.8609 21.2475 20.5773 21.25Z" fill="#0088CC"/>
<path d="M12.4699 19.2501C11.8789 19.6865 11.0752 19.6865 10.4842 19.2501C10.3014 19.112 10.0421 19.1493 9.90504 19.3335C9.76794 19.5175 9.80498 19.7787 9.98779 19.9168C10.8703 20.5835 12.0838 20.5835 12.9663 19.9168C13.0845 19.8275 13.1465 19.6814 13.1288 19.5337C13.1111 19.3859 13.0165 19.2588 12.8806 19.2003C12.7447 19.1418 12.5881 19.1608 12.4699 19.2501Z" fill="#0088CC"/>
<path d="M19.0883 19.2499C18.9056 19.388 18.8685 19.6491 19.0056 19.8332C19.1427 20.0173 19.4019 20.0546 19.5848 19.9166C20.1758 19.4803 20.9794 19.4803 21.5704 19.9166C21.6887 20.0059 21.8452 20.0249 21.9811 19.9664C22.1171 19.9079 22.2116 19.7809 22.2293 19.6331C22.247 19.4853 22.1851 19.3392 22.0668 19.2499C21.1802 18.5957 19.975 18.5957 19.0883 19.2499Z" fill="#0088CC"/>
<path d="M11.0632 17.0833C11.0632 16.5777 10.7608 16.1219 10.2971 15.9284C9.83334 15.735 9.29954 15.8419 8.94459 16.1994C8.58963 16.5569 8.48346 17.0945 8.67558 17.5616C8.86765 18.0287 9.3202 18.3333 9.82214 18.3333C10.5075 18.3333 11.0632 17.7736 11.0632 17.0833ZM9.82214 17.4999C9.59366 17.4999 9.40847 17.3133 9.40847 17.0833C9.40847 16.8531 9.59371 16.6666 9.82214 16.6666C10.0506 16.6666 10.2358 16.8532 10.2358 17.0833C10.2358 17.3133 10.0506 17.4999 9.82214 17.4999Z" fill="#0088CC"/>
<path d="M20.1647 17.0833C20.1647 16.3929 19.609 15.8333 18.9237 15.8333C18.2383 15.8333 17.6826 16.3929 17.6826 17.0833C17.6826 17.7736 18.2383 18.3333 18.9237 18.3333C19.6091 18.3333 20.1647 17.7736 20.1647 17.0833ZM18.9237 17.4999C18.6952 17.4999 18.51 17.3133 18.51 17.0833C18.51 16.8531 18.6952 16.6666 18.9237 16.6666C19.1521 16.6666 19.3373 16.8532 19.3373 17.0833C19.3374 17.3133 19.1521 17.4999 18.9237 17.4999Z" fill="#0088CC"/>
<path d="M13.1317 15.8333C12.4463 15.8333 11.8906 16.3929 11.8906 17.0833C11.8906 17.7736 12.4463 18.3333 13.1317 18.3333C13.817 18.3333 14.3727 17.7736 14.3727 17.0833C14.3727 16.3929 13.817 15.8333 13.1317 15.8333ZM13.1317 17.4999C12.9032 17.4999 12.718 17.3133 12.718 17.0833C12.718 16.8531 12.9032 16.6666 13.1317 16.6666C13.3601 16.6666 13.5453 16.8532 13.5453 17.0833C13.5453 17.3133 13.3601 17.4999 13.1317 17.4999Z" fill="#0088CC"/>
<path d="M22.2323 15.8333C21.5469 15.8333 20.9912 16.3929 20.9912 17.0833C20.9912 17.7736 21.5469 18.3333 22.2323 18.3333C22.9176 18.3333 23.4733 17.7736 23.4733 17.0833C23.4733 16.3929 22.9176 15.8333 22.2323 15.8333ZM22.2323 17.4999C22.0038 17.4999 21.8186 17.3133 21.8186 17.0833C21.8186 16.8531 22.0038 16.6666 22.2323 16.6666C22.4607 16.6666 22.6459 16.8532 22.6459 17.0833C22.6459 17.3133 22.4607 17.4999 22.2323 17.4999Z" fill="#0088CC"/>
<path d="M3.61604 1.6665C2.93066 1.6665 2.375 2.22617 2.375 2.9165V4.58315C2.375 5.27349 2.93066 5.83315 3.61604 5.83315C4.30142 5.83315 4.85708 5.27349 4.85708 4.58315V2.9165C4.85708 2.22617 4.30142 1.6665 3.61604 1.6665ZM4.0297 4.5832C4.0297 4.81333 3.84447 4.99985 3.61604 4.99985C3.38761 4.99985 3.20238 4.81328 3.20238 4.5832V2.9165C3.20238 2.68638 3.38761 2.49985 3.61604 2.49985C3.84447 2.49985 4.0297 2.68643 4.0297 2.9165V4.5832Z" fill="#0088CC"/>
<path d="M3.61604 6.66675C2.93066 6.66675 2.375 7.22642 2.375 7.91675V9.5834C2.375 10.2737 2.93066 10.8334 3.61604 10.8334C4.30142 10.8334 4.85708 10.2737 4.85708 9.5834V7.91675C4.85708 7.22642 4.30142 6.66675 3.61604 6.66675ZM4.0297 9.58345C4.0297 9.81357 3.84447 10.0001 3.61604 10.0001C3.38761 10.0001 3.20238 9.81352 3.20238 9.58345V7.9168C3.20238 7.68667 3.38761 7.50015 3.61604 7.50015C3.84447 7.50015 4.0297 7.68672 4.0297 7.9168V9.58345Z" fill="#0088CC"/>
<path d="M6.92659 10.8334C7.61197 10.8334 8.16763 10.2737 8.16763 9.5834V7.91675C8.16763 7.22637 7.61197 6.66675 6.92659 6.66675C6.2412 6.66675 5.68555 7.22642 5.68555 7.91675V9.5834C5.68555 10.2737 6.24115 10.8334 6.92659 10.8334ZM6.51287 7.9167C6.51287 7.68657 6.69811 7.50005 6.92654 7.50005C7.15502 7.50005 7.3402 7.68662 7.3402 7.9167V9.58335C7.3402 9.81348 7.15497 10 6.92654 10C6.69806 10 6.51287 9.81343 6.51287 9.58335V7.9167Z" fill="#0088CC"/>
<path d="M10.2362 5.8332C10.9215 5.8332 11.4772 5.27354 11.4772 4.5832V2.9165C11.4772 2.22617 10.9215 1.6665 10.2362 1.6665C9.55072 1.6665 8.99512 2.22617 8.99512 2.9165V4.58315C8.99512 5.27354 9.55077 5.8332 10.2362 5.8332ZM9.82249 2.9165C9.82249 2.68638 10.0077 2.49985 10.2362 2.49985C10.4646 2.49985 10.6498 2.68643 10.6498 2.9165V4.58315C10.6498 4.81328 10.4646 4.99981 10.2362 4.99981C10.0077 4.99981 9.82249 4.81323 9.82249 4.58315V2.9165Z" fill="#0088CC"/>
<path d="M13.5457 10.8334C14.2311 10.8334 14.7868 10.2737 14.7868 9.5834V7.91675C14.7868 7.22637 14.2311 6.66675 13.5457 6.66675C12.8603 6.66675 12.3047 7.22642 12.3047 7.91675V9.5834C12.3047 10.2737 12.8603 10.8334 13.5457 10.8334ZM13.1321 7.9167C13.1321 7.68657 13.3173 7.50005 13.5457 7.50005C13.7742 7.50005 13.9594 7.68662 13.9594 7.9167V9.58335C13.9594 9.81348 13.7742 10 13.5457 10C13.3173 10 13.1321 9.81343 13.1321 9.58335V7.9167Z" fill="#0088CC"/>
<path d="M16.8553 5.8332C17.5407 5.8332 18.0963 5.27354 18.0963 4.5832V2.9165C18.0963 2.22617 17.5407 1.6665 16.8553 1.6665C16.1699 1.6665 15.6143 2.22617 15.6143 2.9165V4.58315C15.6143 5.27354 16.1699 5.8332 16.8553 5.8332ZM16.4416 2.9165C16.4416 2.68638 16.6268 2.49985 16.8552 2.49985C17.0837 2.49985 17.2689 2.68643 17.2689 2.9165V4.58315C17.2689 4.81328 17.0837 4.99981 16.8552 4.99981C16.6268 4.99981 16.4416 4.81323 16.4416 4.58315V2.9165Z" fill="#0088CC"/>
<path d="M16.8553 10.8334C17.5407 10.8334 18.0963 10.2737 18.0963 9.5834V7.91675C18.0963 7.22637 17.5407 6.66675 16.8553 6.66675C16.1699 6.66675 15.6143 7.22642 15.6143 7.91675V9.5834C15.6143 10.2737 16.1699 10.8334 16.8553 10.8334ZM16.4416 7.9167C16.4416 7.68657 16.6268 7.50005 16.8552 7.50005C17.0837 7.50005 17.2689 7.68662 17.2689 7.9167V9.58335C17.2689 9.81348 17.0837 10 16.8552 10C16.6268 10 16.4416 9.81343 16.4416 9.58335V7.9167Z" fill="#0088CC"/>
<path d="M6.39052 3.62791L6.92543 3.08914V5.41663C6.92543 5.64675 7.11066 5.83328 7.33909 5.83328C7.56757 5.83328 7.75276 5.64671 7.75276 5.41663V2.08333C7.75271 1.91482 7.65192 1.76292 7.49737 1.69846C7.34283 1.63401 7.16491 1.66961 7.04663 1.78875L5.80559 3.03875C5.64881 3.20222 5.65104 3.46214 5.81063 3.62283C5.97017 3.78352 6.22822 3.78582 6.39052 3.62791Z" fill="#0088CC"/>
<path d="M3.61604 11.6667C2.93066 11.6667 2.375 12.2264 2.375 12.9167V14.5834C2.375 15.2737 2.93066 15.8334 3.61604 15.8334C4.30142 15.8334 4.85708 15.2737 4.85708 14.5834V12.9167C4.85708 12.2264 4.30142 11.6667 3.61604 11.6667ZM4.0297 14.5834C4.0297 14.8136 3.84447 15.0001 3.61604 15.0001C3.38761 15.0001 3.20238 14.8136 3.20238 14.5834V12.9168C3.20238 12.6867 3.38761 12.5001 3.61604 12.5001C3.84447 12.5001 4.0297 12.6867 4.0297 12.9168V14.5834Z" fill="#0088CC"/>
<path d="M9.70107 8.62796L10.236 8.08919V10.4167C10.236 10.6468 10.4212 10.8333 10.6496 10.8333C10.8781 10.8333 11.0633 10.6468 11.0633 10.4167V7.08333C11.0633 6.91482 10.9625 6.76292 10.8079 6.69846C10.6534 6.63401 10.4755 6.66961 10.3572 6.78875L9.11613 8.03875C8.95935 8.20222 8.96158 8.46214 9.12117 8.62283C9.28072 8.78357 9.53872 8.78587 9.70107 8.62796Z" fill="#0088CC"/>
<path d="M13.0106 3.62791L13.5455 3.08914V5.41663C13.5455 5.64675 13.7307 5.83328 13.9592 5.83328C14.1877 5.83328 14.3729 5.64671 14.3729 5.41663V2.08333C14.3728 1.91482 14.272 1.76292 14.1175 1.69846C13.9629 1.63401 13.785 1.66961 13.6667 1.78875L12.4257 3.03875C12.2689 3.20222 12.2712 3.46214 12.4307 3.62283C12.5903 3.78352 12.8483 3.78582 13.0106 3.62791Z" fill="#0088CC"/>
</svg>
