<svg width="41" height="41" viewBox="0 0 41 41" fill="none" xmlns="http://www.w3.org/2000/svg">
<circle cx="20.5" cy="20.5" r="20.5" fill="#F9F9F9"/>
<g clip-path="url(#clip0_3473_27700)">
<path d="M30.61 12.1571L22.673 7.57972C21.3327 6.80674 19.6673 6.80679 18.327 7.57972L10.39 12.1571C9.0471 12.9315 8.21289 14.3758 8.21289 15.9261V25.0738C8.21289 26.6242 9.0471 28.0684 10.39 28.8428L18.327 33.4202C19.6675 34.1934 21.3329 34.1931 22.673 33.4202L30.61 28.8428C31.9529 28.0684 32.7871 26.6242 32.7871 25.0738V15.9261C32.7871 14.3758 31.9529 12.9316 30.61 12.1571ZM30.6777 25.0738C30.6777 25.8724 30.2481 26.6164 29.5563 27.0152L21.6193 31.5926C20.9288 31.9909 20.0711 31.9909 19.3807 31.5926L11.4437 27.0152C10.7519 26.6163 10.3223 25.8724 10.3223 25.0738V15.9261C10.3223 15.1276 10.7519 14.3837 11.4437 13.9848L19.3807 9.40738C20.0712 9.00913 20.9292 9.00929 21.6193 9.40738L29.5563 13.9847C30.2481 14.3837 30.6777 15.1275 30.6777 15.9261V25.0738Z" fill="#0088CC"/>
<path d="M19.4979 19.6947L15.5807 16.3796C15.1361 16.0033 14.4706 16.0587 14.0943 16.5035C13.718 16.9483 13.7735 17.6138 14.2182 17.9901L17.1838 20.5L14.2182 23.0098C13.7735 23.3861 13.7181 24.0516 14.0943 24.4964C14.4715 24.9421 15.1372 24.9956 15.5807 24.6202L19.4979 21.3052C19.9962 20.8835 19.9948 20.1152 19.4979 19.6947Z" fill="#0088CC"/>
<path d="M26.1003 22.7601H21.3545C20.772 22.7601 20.2998 23.2324 20.2998 23.815C20.2998 24.3976 20.772 24.8698 21.3545 24.8698H26.1003C26.6828 24.8698 27.155 24.3976 27.155 23.815C27.155 23.2324 26.6828 22.7601 26.1003 22.7601Z" fill="#0088CC"/>
</g>
<circle cx="20.5" cy="20.5" r="20.5" fill="#F9F9F9"/>
<g clip-path="url(#clip1_3473_27700)">
<path d="M30.61 12.1571L22.673 7.57972C21.3327 6.80674 19.6673 6.80679 18.327 7.57972L10.39 12.1571C9.0471 12.9315 8.21289 14.3758 8.21289 15.9261V25.0738C8.21289 26.6242 9.0471 28.0684 10.39 28.8428L18.327 33.4202C19.6675 34.1934 21.3329 34.1931 22.673 33.4202L30.61 28.8428C31.9529 28.0684 32.7871 26.6242 32.7871 25.0738V15.9261C32.7871 14.3758 31.9529 12.9316 30.61 12.1571ZM30.6777 25.0738C30.6777 25.8724 30.2481 26.6164 29.5563 27.0152L21.6193 31.5926C20.9288 31.9909 20.0711 31.9909 19.3807 31.5926L11.4437 27.0152C10.7519 26.6163 10.3223 25.8724 10.3223 25.0738V15.9261C10.3223 15.1276 10.7519 14.3837 11.4437 13.9848L19.3807 9.40738C20.0712 9.00913 20.9292 9.00929 21.6193 9.40738L29.5563 13.9847C30.2481 14.3837 30.6777 15.1275 30.6777 15.9261V25.0738Z" fill="#0088CC"/>
</g>
<path d="M26.7046 17.7642C27.0985 17.3607 27.0985 16.7063 26.7046 16.3026C26.311 15.8991 25.6726 15.8991 25.2788 16.3026L19.228 22.5051L16.721 19.9354C16.3274 19.5317 15.689 19.5317 15.2954 19.9354C14.9015 20.3389 14.9015 20.9933 15.2954 21.3968L18.5151 24.6974C18.909 25.1009 19.5472 25.1009 19.941 24.6974L26.7046 17.7642Z" fill="#0088CC"/>
<circle cx="20.5" cy="20.5" r="20.5" fill="#F9F9F9"/>
<g clip-path="url(#clip2_3473_27700)">
<path d="M30.61 12.1571L22.673 7.57972C21.3327 6.80674 19.6673 6.80679 18.327 7.57972L10.39 12.1571C9.0471 12.9315 8.21289 14.3758 8.21289 15.9261V25.0738C8.21289 26.6242 9.0471 28.0684 10.39 28.8428L18.327 33.4202C19.6675 34.1934 21.3329 34.1931 22.673 33.4202L30.61 28.8428C31.9529 28.0684 32.7871 26.6242 32.7871 25.0738V15.9261C32.7871 14.3758 31.9529 12.9316 30.61 12.1571ZM30.6777 25.0738C30.6777 25.8724 30.2481 26.6164 29.5563 27.0152L21.6193 31.5926C20.9288 31.9909 20.0711 31.9909 19.3807 31.5926L11.4437 27.0152C10.7519 26.6163 10.3223 25.8724 10.3223 25.0738V15.9261C10.3223 15.1276 10.7519 14.3837 11.4437 13.9848L19.3807 9.40738C20.0712 9.00913 20.9292 9.00929 21.6193 9.40738L29.5563 13.9847C30.2481 14.3837 30.6777 15.1275 30.6777 15.9261V25.0738Z" fill="#0088CC"/>
<path d="M19.4979 19.6947L15.5807 16.3796C15.1361 16.0033 14.4706 16.0587 14.0943 16.5035C13.718 16.9483 13.7735 17.6138 14.2182 17.9901L17.1838 20.5L14.2182 23.0098C13.7735 23.3861 13.7181 24.0516 14.0943 24.4964C14.4715 24.9421 15.1372 24.9956 15.5807 24.6202L19.4979 21.3052C19.9962 20.8835 19.9948 20.1152 19.4979 19.6947Z" fill="#0088CC"/>
<path d="M26.1003 22.7601H21.3545C20.772 22.7601 20.2998 23.2324 20.2998 23.815C20.2998 24.3976 20.772 24.8698 21.3545 24.8698H26.1003C26.6828 24.8698 27.155 24.3976 27.155 23.815C27.155 23.2324 26.6828 22.7601 26.1003 22.7601Z" fill="#0088CC"/>
</g>
<circle cx="20.5" cy="20.5" r="20.5" fill="#F9F9F9"/>
<g clip-path="url(#clip3_3473_27700)">
<path d="M30.61 12.1571L22.673 7.57972C21.3327 6.80674 19.6673 6.80679 18.327 7.57972L10.39 12.1571C9.0471 12.9315 8.21289 14.3758 8.21289 15.9261V25.0738C8.21289 26.6242 9.0471 28.0684 10.39 28.8428L18.327 33.4202C19.6675 34.1934 21.3329 34.1931 22.673 33.4202L30.61 28.8428C31.9529 28.0684 32.7871 26.6242 32.7871 25.0738V15.9261C32.7871 14.3758 31.9529 12.9316 30.61 12.1571ZM30.6777 25.0738C30.6777 25.8724 30.2481 26.6164 29.5563 27.0152L21.6193 31.5926C20.9288 31.9909 20.0711 31.9909 19.3807 31.5926L11.4437 27.0152C10.7519 26.6163 10.3223 25.8724 10.3223 25.0738V15.9261C10.3223 15.1276 10.7519 14.3837 11.4437 13.9848L19.3807 9.40738C20.0712 9.00913 20.9292 9.00929 21.6193 9.40738L29.5563 13.9847C30.2481 14.3837 30.6777 15.1275 30.6777 15.9261V25.0738Z" fill="#0088CC"/>
<path d="M19.4979 19.6947L15.5807 16.3796C15.1361 16.0033 14.4706 16.0587 14.0943 16.5035C13.718 16.9483 13.7735 17.6138 14.2182 17.9901L17.1838 20.5L14.2182 23.0098C13.7735 23.3861 13.7181 24.0516 14.0943 24.4964C14.4715 24.9421 15.1372 24.9956 15.5807 24.6202L19.4979 21.3052C19.9962 20.8835 19.9948 20.1152 19.4979 19.6947Z" fill="#0088CC"/>
<path d="M26.1003 22.7601H21.3545C20.772 22.7601 20.2998 23.2324 20.2998 23.815C20.2998 24.3976 20.772 24.8698 21.3545 24.8698H26.1003C26.6828 24.8698 27.155 24.3976 27.155 23.815C27.155 23.2324 26.6828 22.7601 26.1003 22.7601Z" fill="#0088CC"/>
</g>
<circle cx="20.5" cy="20.5" r="20.5" fill="#F9F9F9"/>
<g clip-path="url(#clip4_3473_27700)">
<path d="M30.61 12.1571L22.673 7.57972C21.3327 6.80674 19.6673 6.80679 18.327 7.57972L10.39 12.1571C9.0471 12.9315 8.21289 14.3758 8.21289 15.9261V25.0738C8.21289 26.6242 9.0471 28.0684 10.39 28.8428L18.327 33.4202C19.6675 34.1934 21.3329 34.1931 22.673 33.4202L30.61 28.8428C31.9529 28.0684 32.7871 26.6242 32.7871 25.0738V15.9261C32.7871 14.3758 31.9529 12.9316 30.61 12.1571ZM30.6777 25.0738C30.6777 25.8724 30.2481 26.6164 29.5563 27.0152L21.6193 31.5926C20.9288 31.9909 20.0711 31.9909 19.3807 31.5926L11.4437 27.0152C10.7519 26.6163 10.3223 25.8724 10.3223 25.0738V15.9261C10.3223 15.1276 10.7519 14.3837 11.4437 13.9848L19.3807 9.40738C20.0712 9.00913 20.9292 9.00929 21.6193 9.40738L29.5563 13.9847C30.2481 14.3837 30.6777 15.1275 30.6777 15.9261V25.0738Z" fill="#0088CC"/>
</g>
<path d="M26.7046 17.7642C27.0985 17.3607 27.0985 16.7063 26.7046 16.3026C26.311 15.8991 25.6726 15.8991 25.2788 16.3026L19.228 22.5051L16.721 19.9354C16.3274 19.5317 15.689 19.5317 15.2954 19.9354C14.9015 20.3389 14.9015 20.9933 15.2954 21.3968L18.5151 24.6974C18.909 25.1009 19.5472 25.1009 19.941 24.6974L26.7046 17.7642Z" fill="#0088CC"/>
<defs>
<clipPath id="clip0_3473_27700">
<rect width="27" height="27" fill="white" transform="translate(7 7)"/>
</clipPath>
<clipPath id="clip1_3473_27700">
<rect width="27" height="27" fill="white" transform="translate(7 7)"/>
</clipPath>
<clipPath id="clip2_3473_27700">
<rect width="27" height="27" fill="white" transform="translate(7 7)"/>
</clipPath>
<clipPath id="clip3_3473_27700">
<rect width="27" height="27" fill="white" transform="translate(7 7)"/>
</clipPath>
<clipPath id="clip4_3473_27700">
<rect width="27" height="27" fill="white" transform="translate(7 7)"/>
</clipPath>
</defs>
</svg>
