<svg width="17" height="22" viewBox="0 0 17 22" fill="none" xmlns="http://www.w3.org/2000/svg">
<path d="M1.59091 21.4895H15.4091C16.0116 21.4895 16.5 21.0199 16.5 20.4405V3.65735C16.5 3.56462 16.4616 3.47571 16.3935 3.41015L13.4843 0.612935C13.4161 0.547375 13.3237 0.510498 13.2272 0.510498H1.59091C0.988437 0.510498 0.5 0.980149 0.5 1.55945V20.4405C0.5 21.0199 0.988394 21.4895 1.59091 21.4895ZM13.5909 1.70421L15.2585 3.30771H13.9545C13.7537 3.30771 13.5909 3.15115 13.5909 2.95808V1.70421ZM1.22724 1.55945C1.22724 1.36633 1.39007 1.20981 1.59087 1.20981H12.8636V2.95808C12.8636 3.53737 13.352 4.00703 13.9545 4.00703H15.7727V20.4405C15.7727 20.6337 15.6099 20.7902 15.4091 20.7902H1.59091C1.39007 20.7902 1.22729 20.6337 1.22729 20.4405V1.55945H1.22724Z" fill="black"/>
<path d="M3.15245 5.30318C3.29512 5.43569 3.52195 5.4338 3.66219 5.29892C3.80243 5.16403 3.80443 4.94596 3.66662 4.80878L2.8328 4.00703L3.66662 3.20528C3.76114 3.11747 3.79906 2.9875 3.76578 2.86523C3.7325 2.74296 3.63321 2.64753 3.5061 2.61553C3.37894 2.58353 3.24377 2.62 3.15245 2.71088L2.06154 3.75983C1.91959 3.89636 1.91959 4.1177 2.06154 4.25423L3.15245 5.30318Z" fill="black"/>
<path d="M7.51515 5.30319C7.65714 5.43968 7.88734 5.43968 8.02933 5.30319L9.12023 4.25424C9.26218 4.11771 9.26218 3.89637 9.12023 3.75984L8.02933 2.71089C7.88666 2.57838 7.65982 2.58026 7.51958 2.71515C7.3793 2.85004 7.37734 3.06811 7.51515 3.20529L8.34897 4.00704L7.51515 4.80879C7.3732 4.94536 7.3732 5.16666 7.51515 5.30319Z" fill="black"/>
<path d="M4.86337 5.40556C4.98507 5.40568 5.09872 5.34729 5.16627 5.24998L6.6208 3.15208C6.73227 2.99141 6.68715 2.77429 6.52006 2.6671C6.35297 2.55991 6.12716 2.6033 6.01568 2.76396L4.56115 4.86186C4.48675 4.9691 4.47972 5.10702 4.54292 5.22072C4.60615 5.33438 4.72926 5.40543 4.86337 5.40556Z" fill="black"/>
<path d="M2.3187 7.15386H3.04599C3.24682 7.15386 3.40961 6.9973 3.40961 6.80423C3.40961 6.61115 3.24678 6.45459 3.04599 6.45459H2.3187C2.11786 6.45459 1.95508 6.61111 1.95508 6.80423C1.95508 6.99734 2.1179 7.15386 2.3187 7.15386Z" fill="black"/>
<path d="M2.3187 8.90215H3.04599C3.24682 8.90215 3.40961 8.74559 3.40961 8.55252C3.40961 8.35945 3.24678 8.20288 3.04599 8.20288H2.3187C2.11786 8.20288 1.95508 8.35945 1.95508 8.55252C1.95508 8.74559 2.1179 8.90215 2.3187 8.90215Z" fill="black"/>
<path d="M2.3187 10.6503H3.04599C3.24682 10.6503 3.40961 10.4938 3.40961 10.3007C3.40961 10.1076 3.24678 9.95105 3.04599 9.95105H2.3187C2.11786 9.95105 1.95508 10.1076 1.95508 10.3007C1.95508 10.4938 2.1179 10.6503 2.3187 10.6503Z" fill="black"/>
<path d="M2.3187 12.3986H3.04599C3.24682 12.3986 3.40961 12.242 3.40961 12.0489C3.40961 11.8558 3.24678 11.6993 3.04599 11.6993H2.3187C2.11786 11.6993 1.95508 11.8558 1.95508 12.0489C1.95508 12.242 2.1179 12.3986 2.3187 12.3986Z" fill="black"/>
<path d="M2.3187 14.1468H3.04599C3.24682 14.1468 3.40961 13.9903 3.40961 13.7972C3.40961 13.6041 3.24678 13.4476 3.04599 13.4476H2.3187C2.11786 13.4476 1.95508 13.6041 1.95508 13.7972C1.95508 13.9903 2.1179 14.1468 2.3187 14.1468Z" fill="black"/>
<path d="M2.3187 15.8951H3.04599C3.24682 15.8951 3.40961 15.7386 3.40961 15.5455C3.40961 15.3524 3.24682 15.1958 3.04599 15.1958H2.3187C2.11786 15.1958 1.95508 15.3523 1.95508 15.5454C1.95508 15.7386 2.1179 15.8951 2.3187 15.8951Z" fill="black"/>
<path d="M2.3187 17.6434H3.04599C3.24682 17.6434 3.40961 17.4868 3.40961 17.2937C3.40961 17.1006 3.24678 16.9441 3.04599 16.9441H2.3187C2.11786 16.9441 1.95508 17.1007 1.95508 17.2937C1.95508 17.4868 2.1179 17.6434 2.3187 17.6434Z" fill="black"/>
<path d="M2.3187 19.3917H3.04599C3.24682 19.3917 3.40961 19.2351 3.40961 19.042C3.40961 18.8489 3.24678 18.6924 3.04599 18.6924H2.3187C2.11786 18.6924 1.95508 18.8489 1.95508 19.042C1.95508 19.2351 2.1179 19.3917 2.3187 19.3917Z" fill="black"/>
<path d="M4.49985 7.15386H9.59077C9.79161 7.15386 9.95439 6.9973 9.95439 6.80423C9.95439 6.61115 9.79157 6.45459 9.59077 6.45459H4.49985C4.29901 6.45459 4.13623 6.61111 4.13623 6.80423C4.13623 6.99734 4.29906 7.15386 4.49985 7.15386Z" fill="black"/>
<path d="M4.49985 8.90215H8.49986C8.7007 8.90215 8.86348 8.74559 8.86348 8.55252C8.86348 8.35945 8.70066 8.20288 8.49986 8.20288H4.49985C4.29901 8.20288 4.13623 8.35945 4.13623 8.55252C4.13623 8.74559 4.29906 8.90215 4.49985 8.90215Z" fill="black"/>
<path d="M4.49985 10.6503H11.4089C11.6098 10.6503 11.7725 10.4938 11.7725 10.3007C11.7725 10.1076 11.6098 9.95105 11.4089 9.95105H4.49985C4.29901 9.95105 4.13623 10.1076 4.13623 10.3007C4.13623 10.4938 4.29906 10.6503 4.49985 10.6503Z" fill="black"/>
<path d="M9.59033 8.55252C9.59033 8.74563 9.75316 8.90215 9.95395 8.90215H13.954C14.1548 8.90215 14.3176 8.74559 14.3176 8.55252C14.3176 8.35945 14.1548 8.20288 13.954 8.20288H9.95395C9.75316 8.20284 9.59033 8.3594 9.59033 8.55252Z" fill="black"/>
<path d="M12.5 10.3007C12.5 10.4938 12.6628 10.6503 12.8636 10.6503H14.6818C14.8827 10.6503 15.0454 10.4938 15.0454 10.3007C15.0454 10.1076 14.8826 9.95105 14.6818 9.95105H12.8636C12.6628 9.95105 12.5 10.1076 12.5 10.3007Z" fill="black"/>
<path d="M4.49985 12.3986H7.04529C7.24613 12.3986 7.40891 12.242 7.40891 12.0489C7.40891 11.8558 7.24609 11.6993 7.04529 11.6993H4.49985C4.29901 11.6993 4.13623 11.8558 4.13623 12.0489C4.13623 12.242 4.29906 12.3986 4.49985 12.3986Z" fill="black"/>
<path d="M4.49985 14.1468H8.86348C9.06432 14.1468 9.22711 13.9903 9.22711 13.7972C9.22711 13.6041 9.06432 13.4476 8.86348 13.4476H4.49985C4.29901 13.4476 4.13623 13.6041 4.13623 13.7972C4.13623 13.9903 4.29906 14.1468 4.49985 14.1468Z" fill="black"/>
<path d="M4.49985 15.8951H11.4089C11.6098 15.8951 11.7725 15.7386 11.7725 15.5454C11.7725 15.3523 11.6098 15.1958 11.4089 15.1958H4.49985C4.29901 15.1958 4.13623 15.3523 4.13623 15.5454C4.13623 15.7386 4.29906 15.8951 4.49985 15.8951Z" fill="black"/>
<path d="M4.49985 17.6434H6.31805C6.51888 17.6434 6.68167 17.4868 6.68167 17.2937C6.68167 17.1006 6.51884 16.9441 6.31805 16.9441H4.49985C4.29901 16.9441 4.13623 17.1007 4.13623 17.2937C4.13623 17.4868 4.29906 17.6434 4.49985 17.6434Z" fill="black"/>
<path d="M4.49985 19.3917H8.1362C8.33704 19.3917 8.49982 19.2351 8.49982 19.042C8.49982 18.8489 8.33704 18.6924 8.1362 18.6924H4.49985C4.29901 18.6924 4.13623 18.8489 4.13623 19.042C4.13623 19.2351 4.29906 19.3917 4.49985 19.3917Z" fill="black"/>
<path d="M12.1362 11.6993H8.49985C8.29901 11.6993 8.13623 11.8558 8.13623 12.0489C8.13623 12.242 8.29906 12.3986 8.49985 12.3986H12.1362C12.337 12.3986 12.4998 12.242 12.4998 12.0489C12.4998 11.8558 12.337 11.6993 12.1362 11.6993Z" fill="black"/>
<path d="M14.6821 11.6993H13.5912C13.3903 11.6993 13.2275 11.8558 13.2275 12.0489C13.2275 12.242 13.3904 12.3986 13.5912 12.3986H14.6821C14.8829 12.3986 15.0457 12.242 15.0457 12.0489C15.0457 11.8558 14.8829 11.6993 14.6821 11.6993Z" fill="black"/>
<path d="M13.9545 15.1958H12.8636C12.6628 15.1958 12.5 15.3523 12.5 15.5454C12.5 15.7386 12.6628 15.8951 12.8636 15.8951H13.9545C14.1554 15.8951 14.3182 15.7386 14.3182 15.5454C14.3182 15.3523 14.1554 15.1958 13.9545 15.1958Z" fill="black"/>
<path d="M13.2269 16.9441H7.77231C7.57148 16.9441 7.40869 17.1007 7.40869 17.2937C7.40869 17.4868 7.57152 17.6434 7.77231 17.6434H13.2269C13.4277 17.6434 13.5905 17.4868 13.5905 17.2937C13.5905 17.1006 13.4277 16.9441 13.2269 16.9441Z" fill="black"/>
</svg>
