<svg width="23" height="25" viewBox="0 0 23 25" fill="none" xmlns="http://www.w3.org/2000/svg">
<path d="M10.7284 25C14.2498 25.0024 17.5085 23.1246 19.2913 20.066C21.0741 17.0074 21.1137 13.2262 19.3955 10.1304L20.3014 9.21786C20.774 8.73324 20.774 7.95667 20.3014 7.472L19.5477 6.71282L21.9326 4.307C22.3027 3.93444 22.4134 3.37394 22.213 2.88702C22.0127 2.40016 21.5408 2.08287 21.0175 2.08321H17.6543C17.7978 1.82344 17.7953 1.50684 17.6476 1.24942C17.4999 0.991996 17.2288 0.831741 16.9337 0.827347L16.4542 0.819827L16.2073 0.408986C16.0544 0.155128 15.7809 0 15.486 0C15.1911 0 14.9176 0.155128 14.7647 0.409084L14.5186 0.819925L14.0379 0.827444C13.7428 0.831741 13.4716 0.992045 13.324 1.24947C13.1763 1.50694 13.1739 1.82359 13.3177 2.08326L13.5486 2.49991L13.3177 2.91656C13.1742 3.17628 13.1767 3.49279 13.3243 3.75016C13.4719 4.00753 13.7429 4.16784 14.0379 4.17243L14.5174 4.17995L14.7656 4.59118C14.9185 4.84514 15.1919 5.00026 15.4868 5.00026C15.7817 5.00026 16.0552 4.84514 16.2081 4.59118L16.4542 4.18034L16.9337 4.17243C17.2288 4.16813 17.5 4.00783 17.6476 3.7504C17.7953 3.49293 17.7976 3.17628 17.6539 2.91661H21.0175C21.2058 2.917 21.3754 3.03155 21.4471 3.2069C21.5189 3.38224 21.4788 3.58385 21.3456 3.71784L18.9607 6.12493L18.2007 5.3591C17.7196 4.88317 16.9486 4.88317 16.4674 5.3591L15.5631 6.26995C11.9334 4.22751 7.42474 4.67931 4.26575 7.40203C1.10676 10.1247 -0.0333021 14.5416 1.40907 18.4692C2.85145 22.3968 6.5708 25.0032 10.7284 25ZM16.5878 2.70284L16.9188 3.33908L16.2101 3.35075C16.0676 3.35304 15.9363 3.42911 15.8626 3.55202L15.4725 4.15993L15.1081 3.55202C15.0344 3.42911 14.9031 3.35309 14.7606 3.35075L14.0395 3.32282L14.3833 2.70279C14.4531 2.57667 14.4531 2.4231 14.3833 2.29698L14.0523 1.66075L14.761 1.64908C14.9035 1.64678 15.0348 1.57071 15.1085 1.44781L15.4857 0.833206C15.4912 0.832327 15.4966 0.835208 15.4989 0.840286L15.863 1.44781C15.9367 1.57071 16.0679 1.64673 16.2105 1.64908L16.9336 1.67701L16.5898 2.29703C16.5194 2.42276 16.5186 2.57633 16.5878 2.70284ZM17.0507 5.95036C17.2083 5.79529 17.4599 5.79529 17.6175 5.95036L19.7128 8.06077C19.8668 8.21961 19.8668 8.47323 19.7128 8.63202L18.9479 9.40204C18.2369 8.34676 17.3336 7.43694 16.2858 6.72078L17.0507 5.95036ZM10.7284 5.83327C15.7548 5.83327 19.8294 9.93734 19.8294 15C19.8294 20.0626 15.7548 24.1666 10.7284 24.1666C5.70212 24.1666 1.62747 20.0626 1.62747 15C1.63314 9.93973 5.70449 5.83899 10.7284 5.83327Z" fill="#0088CC"/>
<path d="M2.8693 14.5807C2.8837 14.5824 2.89824 14.5832 2.91273 14.5832C3.12502 14.583 3.30269 14.4209 3.32392 14.2082C3.65978 11.1403 5.81686 8.58768 8.77 7.76361C8.99048 7.70286 9.1203 7.47357 9.06 7.25155C8.99969 7.02948 8.77204 6.89871 8.55161 6.95946C5.26954 7.8766 2.87298 10.7147 2.50111 14.1249C2.47847 14.3529 2.64295 14.5566 2.8693 14.5807Z" fill="#0088CC"/>
<path d="M8.53911 12.622C8.37758 12.4593 8.1157 12.4593 7.95417 12.622L5.88576 14.7053C5.72428 14.868 5.72428 15.1318 5.88576 15.2945L7.95417 17.3778C8.11648 17.5358 8.37453 17.5335 8.53407 17.3728C8.69366 17.212 8.69589 16.9522 8.53911 16.7887L6.76316 14.9999L8.53911 13.2111C8.70059 13.0485 8.70059 12.7847 8.53911 12.622Z" fill="#0088CC"/>
<path d="M12.918 17.3777C13.0795 17.5404 13.3414 17.5404 13.5029 17.3777L15.5713 15.2944C15.7328 15.1317 15.7328 14.8679 15.5713 14.7052L13.5029 12.6219C13.3406 12.4639 13.0826 12.4662 12.923 12.6269C12.7634 12.7877 12.7612 13.0475 12.918 13.211L14.6939 14.9998L12.918 16.7886C12.7565 16.9512 12.7565 17.215 12.918 17.3777Z" fill="#0088CC"/>
<path d="M9.74766 17.4703C9.79643 17.49 9.84854 17.5 9.90114 17.4998C10.0704 17.4999 10.2226 17.3961 10.2854 17.2378L11.9401 13.0711C11.995 12.9329 11.9724 12.7756 11.8809 12.6586C11.7894 12.5417 11.6429 12.4828 11.4966 12.504C11.3503 12.5254 11.2264 12.6237 11.1716 12.762L9.51685 16.9286C9.47613 17.0312 9.47754 17.146 9.52083 17.2476C9.56407 17.3492 9.64571 17.4293 9.74766 17.4703Z" fill="#0088CC"/>
</svg>
