<svg width="41" height="42" viewBox="0 0 41 42" fill="none" xmlns="http://www.w3.org/2000/svg">
<ellipse cx="20.5" cy="20.6333" rx="20.5" ry="20.6333" fill="#F9F9F9"/>
<g clip-path="url(#clip0_3689_30317)">
<path d="M30.61 12.2362L22.673 7.62902C21.3327 6.85101 19.6673 6.85106 18.327 7.62902L10.39 12.2362C9.0471 13.0156 8.21289 14.4693 8.21289 16.0297V25.2369C8.21289 26.7974 9.0471 28.251 10.39 29.0304L18.327 33.6376C19.6675 34.4158 21.3329 34.4155 22.673 33.6376L30.61 29.0304C31.9529 28.251 32.7871 26.7974 32.7871 25.2369V16.0297C32.7871 14.4693 31.9529 13.0157 30.61 12.2362ZM30.6777 25.2369C30.6777 26.0407 30.2481 26.7895 29.5563 27.1909L21.6193 31.7981C20.9288 32.199 20.0711 32.199 19.3807 31.7981L11.4437 27.1909C10.7519 26.7894 10.3223 26.0407 10.3223 25.2369V16.0297C10.3223 15.226 10.7519 14.4772 11.4437 14.0757L19.3807 9.46857C20.0712 9.06773 20.9292 9.06789 21.6193 9.46857L29.5563 14.0757C30.2481 14.4772 30.6777 15.2259 30.6777 16.0297V25.2369Z" fill="#0088CC"/>
<path d="M19.4969 19.8228L15.5797 16.4862C15.1351 16.1075 14.4696 16.1633 14.0933 16.6109C13.7171 17.0586 13.7725 17.7285 14.2172 18.1072L17.1829 20.6334L14.2172 23.1595C13.7725 23.5383 13.7171 24.2081 14.0933 24.6558C14.4705 25.1044 15.1362 25.1583 15.5797 24.7804L19.4969 21.4438C19.9952 21.0194 19.9938 20.2461 19.4969 19.8228Z" fill="#0088CC"/>
<path d="M26.1013 22.9082H21.3555C20.773 22.9082 20.3008 23.3835 20.3008 23.9699C20.3008 24.5563 20.773 25.0316 21.3555 25.0316H26.1013C26.6837 25.0316 27.156 24.5563 27.156 23.9699C27.156 23.3835 26.6838 22.9082 26.1013 22.9082Z" fill="#0088CC"/>
</g>
<ellipse cx="20.5" cy="20.6333" rx="20.5" ry="20.6333" fill="#F9F9F9"/>
<g clip-path="url(#clip1_3689_30317)">
<path d="M30.61 12.2362L22.673 7.62902C21.3327 6.85101 19.6673 6.85106 18.327 7.62902L10.39 12.2362C9.0471 13.0156 8.21289 14.4693 8.21289 16.0297V25.2369C8.21289 26.7974 9.0471 28.251 10.39 29.0304L18.327 33.6376C19.6675 34.4158 21.3329 34.4155 22.673 33.6376L30.61 29.0304C31.9529 28.251 32.7871 26.7974 32.7871 25.2369V16.0297C32.7871 14.4693 31.9529 13.0157 30.61 12.2362ZM30.6777 25.2369C30.6777 26.0407 30.2481 26.7895 29.5563 27.1909L21.6193 31.7981C20.9288 32.199 20.0711 32.199 19.3807 31.7981L11.4437 27.1909C10.7519 26.7894 10.3223 26.0407 10.3223 25.2369V16.0297C10.3223 15.226 10.7519 14.4772 11.4437 14.0757L19.3807 9.46857C20.0712 9.06773 20.9292 9.06789 21.6193 9.46857L29.5563 14.0757C30.2481 14.4772 30.6777 15.2259 30.6777 16.0297V25.2369Z" fill="#0088CC"/>
<path d="M14.5569 26.3191H14.5569C14.4767 26.319 14.3971 26.3048 14.3216 26.2773L14.321 26.2771C14.1818 26.2258 14.0624 26.1308 13.9785 26.0068C13.8947 25.8827 13.8501 25.7353 13.85 25.5848L13.85 25.5847L13.85 24.8054V24.8052C13.8523 22.8563 14.5544 20.9787 15.8181 19.5467C17.0508 18.1499 18.7299 17.2769 20.5358 17.0926V14.675V14.6749C20.5359 14.5313 20.5765 14.3904 20.6533 14.2699C20.7302 14.1494 20.8401 14.0544 20.97 13.9979C21.1 13.9415 21.2435 13.9266 21.3821 13.9554C21.5205 13.9843 21.6467 14.0553 21.7451 14.1584L21.7452 14.1585L26.9452 19.6133C27.0137 19.6851 27.067 19.7707 27.102 19.8643C27.137 19.9579 27.1531 20.0579 27.1495 20.158C27.1459 20.2582 27.1225 20.3566 27.0807 20.4473C27.0389 20.538 26.9795 20.6192 26.9057 20.6856L21.7057 25.3611L21.7057 25.3611C21.6032 25.4532 21.4769 25.5132 21.3415 25.533C21.206 25.5529 21.0682 25.5314 20.9447 25.4717C20.8212 25.4121 20.7177 25.3171 20.6456 25.199C20.5736 25.0809 20.5357 24.9443 20.5358 24.8053M14.5569 26.3191L20.6858 24.8054M14.5569 26.3191C14.6635 26.3193 14.7684 26.2945 14.8641 26.2469C14.9598 26.1993 15.0434 26.1302 15.1094 26.0453L15.1102 26.0443L16.0759 24.7795L16.0763 24.7791C16.6292 24.0493 17.3305 23.4592 18.1283 23.0517C18.8807 22.6673 19.7011 22.4544 20.5358 22.4259M14.5569 26.3191L20.6858 22.2728C20.6357 22.2732 20.5857 22.2742 20.5358 22.2759V22.4259M20.5358 24.8053L20.6858 24.8054M20.5358 24.8053V24.8054H20.6858M20.5358 24.8053V22.4259M20.6858 24.8054V22.4228C20.6357 22.4232 20.5857 22.4242 20.5358 22.4259M21.95 17.792V16.4608L20.7418 20.9539L20.7415 21.1039V20.9539H20.7416C19.658 20.9516 18.5875 21.2002 17.6066 21.6817C16.7938 22.0806 16.0593 22.6311 15.4381 23.3045C15.7367 22.0377 16.4044 20.8955 17.3534 20.0411C18.4374 19.065 19.817 18.5285 21.2431 18.5265C21.433 18.5264 21.6135 18.4472 21.7454 18.3088C21.8772 18.1706 21.95 17.9846 21.95 17.792ZM21.95 23.198L21.8 23.3328V23.5344L21.95 23.3997V23.198ZM25.5142 20.1974L25.6258 20.0971L25.5222 19.9885L25.4106 20.0888L25.5142 20.1974ZM15.1849 23.8313C15.247 23.7529 15.3106 23.6758 15.3756 23.6002L15.2357 23.533C15.2166 23.6318 15.1996 23.7313 15.1849 23.8313Z" fill="#0088CC" stroke="#0088CC" stroke-width="0.3"/>
</g>
<ellipse cx="20.5" cy="20.6333" rx="20.5" ry="20.6333" fill="#F9F9F9"/>
<g clip-path="url(#clip2_3689_30317)">
<path d="M30.3971 12.1905L22.4601 7.58336C21.1198 6.80536 19.4544 6.80541 18.1141 7.58336L10.1771 12.1905C8.83421 12.97 8 14.4236 8 15.9841V25.1912C8 26.7517 8.8342 28.2054 10.1771 28.9848L18.1141 33.592C19.4546 34.3701 21.12 34.3699 22.4601 33.592L30.3971 28.9848C31.74 28.2054 32.5742 26.7517 32.5742 25.1912V15.9841C32.5742 14.4237 31.74 12.97 30.3971 12.1905ZM30.4648 25.1912C30.4648 25.9951 30.0352 26.7438 29.3434 27.1453L21.4064 31.7525C20.7159 32.1533 19.8582 32.1533 19.1678 31.7525L11.2308 27.1453C10.5391 26.7438 10.1094 25.9951 10.1094 25.1912V15.9841C10.1094 15.1803 10.5391 14.4316 11.2308 14.0301L19.1678 9.42292C19.8583 9.02208 20.7163 9.02224 21.4065 9.42292L29.3434 14.03C30.0352 14.4316 30.4648 15.1803 30.4648 15.9841V25.1912Z" fill="#0088CC"/>
<path d="M27.8983 20.6887C27.7554 20.4932 24.3496 15.901 19.9999 15.901C15.6502 15.901 12.2443 20.4932 12.1015 20.6885C11.9662 20.874 11.9662 21.1256 12.1015 21.3111C12.2443 21.5066 15.6502 26.0988 19.9999 26.0988C24.3496 26.0988 27.7554 21.5066 27.8983 21.3113C28.0339 21.1258 28.0339 20.874 27.8983 20.6887ZM19.9999 25.0439C16.7959 25.0439 14.0208 21.996 13.1994 20.9995C14.0198 20.0023 16.789 16.9559 19.9999 16.9559C23.2038 16.9559 25.9787 20.0033 26.8005 21.0003C25.9801 21.9975 23.2108 25.0439 19.9999 25.0439Z" fill="#0088CC"/>
<path d="M20.0008 17.8351C18.2557 17.8351 16.8359 19.2549 16.8359 20.9999C16.8359 22.745 18.2557 24.1648 20.0008 24.1648C21.7459 24.1648 23.1656 22.745 23.1656 20.9999C23.1656 19.2549 21.7459 17.8351 20.0008 17.8351ZM20.0008 23.1098C18.8373 23.1098 17.8909 22.1633 17.8909 20.9999C17.8909 19.8365 18.8374 18.8901 20.0008 18.8901C21.1642 18.8901 22.1107 19.8365 22.1107 20.9999C22.1107 22.1633 21.1642 23.1098 20.0008 23.1098Z" fill="#0088CC"/>
</g>
<defs>
<clipPath id="clip0_3689_30317">
<rect width="27" height="27.1756" fill="white" transform="translate(7 7.04553)"/>
</clipPath>
<clipPath id="clip1_3689_30317">
<rect width="27" height="27.1756" fill="white" transform="translate(7 7.04553)"/>
</clipPath>
<clipPath id="clip2_3689_30317">
<rect width="27" height="27.1756" fill="white" transform="translate(7 7.04553)"/>
</clipPath>
</defs>
</svg>
