<svg width="36" height="36" viewBox="0 0 36 36" fill="none" xmlns="http://www.w3.org/2000/svg">
<g clip-path="url(#clip0_2902_20619)">
<path fill-rule="evenodd" clip-rule="evenodd" d="M16.7861 19.0788L14.8192 17.1846C14.7205 17.0837 14.6025 17.0037 14.4723 16.9492C14.3421 16.8947 14.2022 16.8669 14.0611 16.8675C13.9199 16.8681 13.7803 16.8969 13.6506 16.9524C13.5208 17.0079 13.4035 17.0889 13.3055 17.1906C13.2076 17.2923 13.1311 17.4126 13.0806 17.5444C13.03 17.6761 13.0064 17.8167 13.0112 17.9578C13.0159 18.0989 13.049 18.2375 13.1083 18.3656C13.1677 18.4937 13.2521 18.6085 13.3567 18.7034L16.0678 21.3147C16.2663 21.507 16.5326 21.6135 16.809 21.611C17.0854 21.6086 17.3498 21.4975 17.545 21.3018L22.658 16.1888C22.8558 15.991 22.967 15.7227 22.967 15.4429C22.967 15.1632 22.8558 14.8949 22.658 14.6971C22.4602 14.4993 22.1919 14.3882 21.9122 14.3882C21.6324 14.3882 21.3642 14.4993 21.1663 14.6971L16.7863 19.0788H16.7861ZM18.0722 0.000732422C18.6929 0.0178799 19.2835 0.271987 19.7228 0.710889L21.883 2.87272C21.9214 2.91636 21.9718 2.94773 22.028 2.96291C22.0841 2.97809 22.1435 2.97641 22.1987 2.95808L25.1518 2.16713C25.7758 2.00024 26.4405 2.08788 26.9999 2.41078C27.5593 2.73368 27.9676 3.26544 28.1352 3.88923L28.9262 6.84235C28.9379 6.89903 28.966 6.95103 29.0069 6.99196C29.0478 7.03289 29.0998 7.06095 29.1565 7.07269L32.1109 7.86371C32.7342 8.032 33.2655 8.44047 33.5882 8.99964C33.911 9.55882 33.999 10.2231 33.833 10.8471L33.0404 13.8002C33.0228 13.8555 33.0214 13.9146 33.0366 13.9706C33.0517 14.0266 33.0827 14.0771 33.1258 14.1159L35.2873 16.2776C35.7438 16.7345 36.0002 17.3538 36.0002 17.9996C36.0002 18.6454 35.7438 19.2648 35.2873 19.7217L33.1255 21.8835C33.0824 21.9224 33.0514 21.9728 33.0363 22.0288C33.0211 22.0848 33.0225 22.144 33.0402 22.1993L33.8327 25.1524C33.9988 25.7764 33.9107 26.4407 33.588 26.9999C33.2652 27.5591 32.734 27.9676 32.1106 28.1359L29.1562 28.9268C29.0996 28.9385 29.0476 28.9666 29.0066 29.0075C28.9657 29.0485 28.9376 29.1005 28.9259 29.1572L28.1349 32.1103C27.9673 32.7341 27.559 33.2658 26.9996 33.5887C26.4402 33.9116 25.7755 33.9992 25.1515 33.8323L22.1984 33.0414C22.1432 33.023 22.0838 33.0213 22.0277 33.0365C21.9716 33.0517 21.9211 33.0831 21.8827 33.1267L19.7225 35.2877C19.265 35.7437 18.6455 35.9997 17.9996 35.9997C17.3537 35.9997 16.7342 35.7437 16.2767 35.2877L14.1152 33.1259C14.0769 33.0825 14.0267 33.0513 13.9709 33.0361C13.9151 33.0209 13.856 33.0225 13.801 33.0405L10.8474 33.8315C10.2235 33.9983 9.55883 33.9107 8.99946 33.5878C8.4401 33.2649 8.03178 32.7332 7.8642 32.1094L7.07312 29.1563C7.06136 29.0996 7.03325 29.0475 6.99226 29.0066C6.95126 28.9657 6.89917 28.9376 6.84242 28.926L3.88929 28.135C3.26579 27.9669 2.73435 27.5585 2.41145 26.9993C2.08854 26.4401 2.00051 25.7756 2.16664 25.1516L2.95829 22.1988C2.97662 22.1436 2.97833 22.0843 2.96321 22.0281C2.94808 21.972 2.91678 21.9215 2.87321 21.883L0.711943 19.7215C0.255702 19.2645 -0.000549316 18.6452 -0.000549316 17.9994C-0.000549316 17.3537 0.255702 16.7343 0.711943 16.2774L2.87405 14.1155C2.91739 14.0769 2.94846 14.0264 2.96346 13.9703C2.97845 13.9142 2.9767 13.855 2.95843 13.7998L2.16678 10.8467C2.00067 10.2227 2.08871 9.55828 2.41162 8.99906C2.73452 8.43985 3.26595 8.03144 3.88944 7.86336L6.84256 7.07234C6.89931 7.06068 6.9514 7.03265 6.9924 6.99171C7.03339 6.95078 7.0615 6.89873 7.07326 6.842L7.86434 3.88923C8.03201 3.26553 8.44034 2.73387 8.99967 2.41099C9.55901 2.08811 10.2236 2.0004 10.8476 2.16713L13.8012 2.95808C13.8561 2.97641 13.9153 2.97808 13.9712 2.96289C14.0271 2.94771 14.0772 2.91633 14.1153 2.87272L16.2772 0.71117C16.7163 0.272203 17.3068 0.0179943 17.9275 0.000732422H18.0722ZM17.999 25.8462C16.4471 25.8462 14.93 25.386 13.6396 24.5238C12.3491 23.6615 11.3434 22.436 10.7495 21.0022C10.1556 19.5684 10.0002 17.9906 10.3029 16.4685C10.6057 14.9463 11.3531 13.5482 12.4505 12.4507C13.5479 11.3533 14.9461 10.606 16.4682 10.3032C17.9903 10.0005 19.5681 10.1558 21.0019 10.7498C22.4357 11.3437 23.6613 12.3494 24.5235 13.6398C25.3857 14.9302 25.8459 16.4474 25.8459 17.9993C25.8438 20.0798 25.0164 22.0744 23.5453 23.5455C22.0742 25.0167 20.0795 25.8441 17.999 25.8462V25.8462Z" fill="#0088CC"/>
</g>
<defs>
<clipPath id="clip0_2902_20619">
<rect width="36" height="36" fill="white"/>
</clipPath>
</defs>
</svg>
