<svg width="41" height="41" viewBox="0 0 41 41" fill="none" xmlns="http://www.w3.org/2000/svg">
<circle cx="20.5" cy="20.5" r="20.5" fill="#F9F9F9"/>
<g clip-path="url(#clip0_3296_24661)">
<path d="M30.3971 12.1571L22.4601 7.57972C21.1198 6.80674 19.4544 6.80679 18.1141 7.57972L10.1771 12.1571C8.83421 12.9315 8 14.3758 8 15.9261V25.0738C8 26.6242 8.83421 28.0684 10.1771 28.8428L18.1141 33.4202C19.4546 34.1934 21.12 34.1931 22.4601 33.4202L30.3971 28.8428C31.74 28.0684 32.5742 26.6242 32.5742 25.0738V15.9261C32.5742 14.3758 31.74 12.9316 30.3971 12.1571ZM30.4648 25.0738C30.4648 25.8724 30.0352 26.6164 29.3434 27.0152L21.4064 31.5926C20.7159 31.9909 19.8582 31.9909 19.1678 31.5926L11.2308 27.0152C10.5391 26.6163 10.1094 25.8724 10.1094 25.0738V15.9261C10.1094 15.1276 10.5391 14.3837 11.2308 13.9848L19.1678 9.40738C19.8583 9.00913 20.7163 9.00929 21.4065 9.40738L29.3434 13.9847C30.0352 14.3837 30.4648 15.1275 30.4648 15.9261V25.0738Z" fill="#0088CC"/>
<line x1="13.5" y1="15.5" x2="13.5" y2="19.5" stroke="#0088CC" stroke-linecap="round"/>
<line x1="25.5" y1="21.5" x2="25.5" y2="25.5" stroke="#0088CC" stroke-linecap="round"/>
<line x1="21.5" y1="15.5" x2="21.5" y2="19.5" stroke="#0088CC" stroke-linecap="round"/>
<line x1="27.5" y1="21.5" x2="27.5" y2="25.5" stroke="#0088CC" stroke-linecap="round"/>
<circle cx="17.5" cy="17.5" r="2" stroke="#0088CC"/>
<circle cx="15.5" cy="23.5" r="2" stroke="#0088CC"/>
<circle cx="25.5" cy="17.5" r="2" stroke="#0088CC"/>
<circle cx="21.5" cy="23.5" r="2" stroke="#0088CC"/>
</g>
<defs>
<clipPath id="clip0_3296_24661">
<rect width="27" height="27" fill="white" transform="translate(7 7)"/>
</clipPath>
</defs>
</svg>
