<svg width="16" height="16" viewBox="0 0 16 16" fill="none" xmlns="http://www.w3.org/2000/svg">
<path d="M10.8643 2.79236H1.62964C0.729615 2.79236 0 3.54242 0 4.46767V13.9611C0 14.8863 0.729615 15.6364 1.62964 15.6364H10.8643C11.7643 15.6364 12.4939 14.8863 12.4939 13.9611V4.46767C12.4939 3.54242 11.7643 2.79236 10.8643 2.79236ZM11.4075 13.9611C11.4075 14.2695 11.1643 14.5195 10.8643 14.5195H1.62964C1.32962 14.5195 1.08642 14.2695 1.08642 13.9611V4.46767C1.08642 4.15924 1.32962 3.90922 1.62964 3.90922H10.8643C11.1643 3.90922 11.4075 4.15924 11.4075 4.46767V13.9611Z" fill="#728A96"/>
<path d="M13.5803 0H3.80249C2.90247 0 2.17285 0.75006 2.17285 1.67531C2.17285 1.98373 2.41606 2.23375 2.71608 2.23375C3.0161 2.23375 3.25927 1.98373 3.25927 1.67531C3.25927 1.36688 3.50247 1.11686 3.80249 1.11686H13.5803C13.8804 1.11686 14.1236 1.36688 14.1236 1.67531V11.7271C14.1236 12.0356 13.8804 12.2856 13.5803 12.2856C13.2803 12.2856 13.0371 12.5356 13.0371 12.844C13.0371 13.1525 13.2803 13.4025 13.5803 13.4025C14.4804 13.4025 15.21 12.6524 15.21 11.7272V1.67531C15.21 0.75006 14.4804 0 13.5803 0Z" fill="#728A96"/>
</svg>
