<svg width="18" height="18" viewBox="0 0 18 18" fill="none" xmlns="http://www.w3.org/2000/svg">
<path d="M11.4828 6.52142C11.25 6.52142 11.0613 6.71013 11.0613 6.94297V14.9102C11.0613 15.1428 11.25 15.3317 11.4828 15.3317C11.7157 15.3317 11.9044 15.1428 11.9044 14.9102V6.94297C11.9044 6.71013 11.7157 6.52142 11.4828 6.52142Z" fill="#BABABA"/>
<path d="M6.50858 6.52142C6.27574 6.52142 6.08704 6.71013 6.08704 6.94297V14.9102C6.08704 15.1428 6.27574 15.3317 6.50858 15.3317C6.74142 15.3317 6.93012 15.1428 6.93012 14.9102V6.94297C6.93012 6.71013 6.74142 6.52142 6.50858 6.52142Z" fill="#BABABA"/>
<path d="M2.88335 5.35877V15.7447C2.88335 16.3586 3.10845 16.9351 3.50167 17.3487C3.89308 17.7635 4.4378 17.999 5.00787 18H12.9836C13.5539 17.999 14.0986 17.7635 14.4898 17.3487C14.883 16.9351 15.1081 16.3586 15.1081 15.7447V5.35877C15.8898 5.15129 16.3963 4.39614 16.2918 3.59405C16.187 2.79213 15.5038 2.19225 14.695 2.19209H12.5367V1.66516C12.5392 1.22204 12.364 0.796544 12.0503 0.483514C11.7366 0.170649 11.3105 -0.00356726 10.8673 5.53875e-05H7.12415C6.68104 -0.00356726 6.25488 0.170649 5.94119 0.483514C5.62751 0.796544 5.4523 1.22204 5.45477 1.66516V2.19209H3.2965C2.48766 2.19225 1.80446 2.79213 1.69973 3.59405C1.59517 4.39614 2.10168 5.15129 2.88335 5.35877ZM12.9836 17.1569H5.00787C4.28713 17.1569 3.72644 16.5378 3.72644 15.7447V5.39582H14.265V15.7447C14.265 16.5378 13.7044 17.1569 12.9836 17.1569ZM6.29786 1.66516C6.29506 1.44566 6.38135 1.23439 6.53712 1.07944C6.69273 0.924489 6.90449 0.839357 7.12415 0.843144H10.8673C11.087 0.839357 11.2988 0.924489 11.4544 1.07944C11.6101 1.23423 11.6964 1.44566 11.6936 1.66516V2.19209H6.29786V1.66516ZM3.2965 3.03517H14.695C15.1141 3.03517 15.4538 3.37488 15.4538 3.79395C15.4538 4.21303 15.1141 4.55273 14.695 4.55273H3.2965C2.87742 4.55273 2.53772 4.21303 2.53772 3.79395C2.53772 3.37488 2.87742 3.03517 3.2965 3.03517Z" fill="#BABABA"/>
<path d="M8.9957 6.52142C8.76286 6.52142 8.57416 6.71013 8.57416 6.94297V14.9102C8.57416 15.1428 8.76286 15.3317 8.9957 15.3317C9.22854 15.3317 9.41725 15.1428 9.41725 14.9102V6.94297C9.41725 6.71013 9.22854 6.52142 8.9957 6.52142Z" fill="#BABABA"/>
</svg>
