<svg width="24" height="24" viewBox="0 0 24 24" fill="none" xmlns="http://www.w3.org/2000/svg">
<path d="M6 4C6 3.60444 6.1173 3.21776 6.33706 2.88886C6.55682 2.55996 6.86918 2.30362 7.23463 2.15224C7.60009 2.00087 8.00222 1.96126 8.39018 2.03843C8.77814 2.1156 9.13451 2.30608 9.41421 2.58579C9.69392 2.86549 9.8844 3.22186 9.96157 3.60982C10.0387 3.99778 9.99914 4.39992 9.84776 4.76537C9.69638 5.13082 9.44004 5.44318 9.11114 5.66294C8.78224 5.8827 8.39556 6 8 6C7.46957 6 6.96086 5.78929 6.58579 5.41421C6.21071 5.03914 6 4.53043 6 4ZM8 14C8.39556 14 8.78224 13.8827 9.11114 13.6629C9.44004 13.4432 9.69638 13.1308 9.84776 12.7654C9.99914 12.3999 10.0387 11.9978 9.96157 11.6098C9.8844 11.2219 9.69392 10.8655 9.41421 10.5858C9.13451 10.3061 8.77814 10.1156 8.39018 10.0384C8.00222 9.96126 7.60009 10.0009 7.23463 10.1522C6.86918 10.3036 6.55682 10.56 6.33706 10.8889C6.1173 11.2178 6 11.6044 6 12C6 12.5304 6.21071 13.0391 6.58579 13.4142C6.96086 13.7893 7.46957 14 8 14ZM8 22C8.39556 22 8.78224 21.8827 9.11114 21.6629C9.44004 21.4432 9.69638 21.1308 9.84776 20.7654C9.99914 20.3999 10.0387 19.9978 9.96157 19.6098C9.8844 19.2219 9.69392 18.8655 9.41421 18.5858C9.13451 18.3061 8.77814 18.1156 8.39018 18.0384C8.00222 17.9613 7.60009 18.0009 7.23463 18.1522C6.86918 18.3036 6.55682 18.56 6.33706 18.8889C6.1173 19.2178 6 19.6044 6 20C6 20.5304 6.21071 21.0391 6.58579 21.4142C6.96086 21.7893 7.46957 22 8 22ZM16 6C16.3956 6 16.7822 5.8827 17.1111 5.66294C17.44 5.44318 17.6964 5.13082 17.8478 4.76537C17.9991 4.39992 18.0387 3.99778 17.9616 3.60982C17.8844 3.22186 17.6939 2.86549 17.4142 2.58579C17.1345 2.30608 16.7781 2.1156 16.3902 2.03843C16.0022 1.96126 15.6001 2.00087 15.2346 2.15224C14.8692 2.30362 14.5568 2.55996 14.3371 2.88886C14.1173 3.21776 14 3.60444 14 4C14 4.53043 14.2107 5.03914 14.5858 5.41421C14.9609 5.78929 15.4696 6 16 6ZM16 14C16.3956 14 16.7822 13.8827 17.1111 13.6629C17.44 13.4432 17.6964 13.1308 17.8478 12.7654C17.9991 12.3999 18.0387 11.9978 17.9616 11.6098C17.8844 11.2219 17.6939 10.8655 17.4142 10.5858C17.1345 10.3061 16.7781 10.1156 16.3902 10.0384C16.0022 9.96126 15.6001 10.0009 15.2346 10.1522C14.8692 10.3036 14.5568 10.56 14.3371 10.8889C14.1173 11.2178 14 11.6044 14 12C14 12.5304 14.2107 13.0391 14.5858 13.4142C14.9609 13.7893 15.4696 14 16 14ZM16 22C16.3956 22 16.7822 21.8827 17.1111 21.6629C17.44 21.4432 17.6964 21.1308 17.8478 20.7654C17.9991 20.3999 18.0387 19.9978 17.9616 19.6098C17.8844 19.2219 17.6939 18.8655 17.4142 18.5858C17.1345 18.3061 16.7781 18.1156 16.3902 18.0384C16.0022 17.9613 15.6001 18.0009 15.2346 18.1522C14.8692 18.3036 14.5568 18.56 14.3371 18.8889C14.1173 19.2178 14 19.6044 14 20C14 20.5304 14.2107 21.0391 14.5858 21.4142C14.9609 21.7893 15.4696 22 16 22Z" fill="#979797"/>
</svg>
