<svg width="20" height="20" viewBox="0 0 20 20" fill="none" xmlns="http://www.w3.org/2000/svg">
<g clip-path="url(#clip0_3604_24665)">
<path d="M12.8871 0.115509C12.7954 0.018921 12.6697 -0.0390625 12.5394 -0.0390625H4.7374C3.29773 -0.0390625 2.10938 1.14456 2.10938 2.58408V17.3377C2.10938 18.7773 3.29773 19.961 4.7374 19.961H15.3267C16.7664 19.961 17.9547 18.7773 17.9547 17.3377V5.62272C17.9547 5.49714 17.8968 5.37644 17.8147 5.28459L12.8871 0.115509ZM13.0272 1.66626L16.3268 5.13001H14.1818C13.5442 5.13001 13.0272 4.61793 13.0272 3.98026V1.66626ZM15.3267 18.9948H4.7374C3.83408 18.9948 3.07556 18.246 3.07556 17.3377V2.58408C3.07556 1.68076 3.8292 0.927126 4.7374 0.927126H12.061V3.98026C12.061 5.15412 13.008 6.0962 14.1818 6.0962H16.9886V17.3377C16.9886 18.246 16.2349 18.9948 15.3267 18.9948Z" fill="black"/>
<path d="M14.008 15.6615H6.05634C5.79068 15.6615 5.57324 15.8788 5.57324 16.1446C5.57324 16.4102 5.79068 16.6277 6.05634 16.6277H14.0129C14.2786 16.6277 14.496 16.4102 14.496 16.1446C14.496 15.8788 14.2786 15.6615 14.008 15.6615Z" fill="black"/>
<path d="M9.67931 13.9272C9.77117 14.0238 9.89675 14.0817 10.0319 14.0817C10.1673 14.0817 10.2929 14.0238 10.3846 13.9272L13.2155 10.8885C13.3991 10.6952 13.3846 10.3861 13.1914 10.2074C12.9981 10.0238 12.689 10.0382 12.5103 10.2315L10.515 12.3715V7.09625C10.515 6.83044 10.2976 6.61316 10.0319 6.61316C9.76629 6.61316 9.54885 6.83044 9.54885 7.09625V12.3715L7.55849 10.2315C7.37493 10.0383 7.07051 10.0238 6.87734 10.2074C6.68416 10.3909 6.66966 10.6954 6.85323 10.8885L9.67931 13.9272Z" fill="black"/>
</g>
<defs>
<clipPath id="clip0_3604_24665">
<rect width="20" height="20" fill="white"/>
</clipPath>
</defs>
</svg>
