<svg width="14" height="15" viewBox="0 0 14 15" fill="none" xmlns="http://www.w3.org/2000/svg">
<path d="M11 1H3C2.86739 1 2.74021 1.05268 2.64645 1.14645C2.55268 1.24021 2.5 1.36739 2.5 1.5V12.5C2.50079 13.1628 2.76444 13.7982 3.23311 14.2669C3.70178 14.7356 4.3372 14.9992 5 15H13C13.1326 15 13.2598 14.9473 13.3536 14.8536C13.4473 14.7598 13.5 14.6326 13.5 14.5V3.5C13.4992 2.8372 13.2356 2.20178 12.7669 1.73311C12.2982 1.26444 11.6628 1.00079 11 1ZM12.5 14H5C4.60218 14 4.22064 13.842 3.93934 13.5607C3.65804 13.2794 3.5 12.8978 3.5 12.5V2H11C11.3978 2 11.7794 2.15804 12.0607 2.43934C12.342 2.72064 12.5 3.10218 12.5 3.5V14Z" fill="black"/>
<path d="M9.5 1.5V5H13M-1 1V1.5" stroke="black" stroke-linecap="round" stroke-linejoin="round"/>
</svg>
