<svg width="18" height="18" viewBox="0 0 18 18" fill="none" xmlns="http://www.w3.org/2000/svg">
<path d="M16.5488 8.00997C16.3895 7.79006 16.1795 7.61182 15.9367 7.49039C15.6938 7.36896 15.4252 7.30793 15.1538 7.31247H14.9738V6.18747C14.9738 5.963 14.9291 5.74077 14.8421 5.5338C14.7552 5.32683 14.6279 5.13928 14.4676 4.98214C14.3073 4.82499 14.1173 4.7014 13.9086 4.61861C13.7 4.53581 13.4769 4.49548 13.2525 4.49997H9.6075C9.47112 4.49917 9.33875 4.45373 9.23063 4.3706L6.98063 2.6156C6.67268 2.37848 6.29492 2.24992 5.90625 2.24997H2.84625C2.62182 2.24548 2.39875 2.28581 2.1901 2.36861C1.98146 2.4514 1.79142 2.57499 1.63113 2.73214C1.47084 2.88928 1.34351 3.07683 1.25661 3.2838C1.1697 3.49077 1.12496 3.713 1.125 3.93747V14.0625C1.12451 14.3738 1.2144 14.6787 1.38375 14.94C1.5394 15.1874 1.75512 15.3914 2.01083 15.5331C2.26655 15.6747 2.55394 15.7493 2.84625 15.75H13.5338C13.901 15.7591 14.2613 15.6482 14.5597 15.434C14.8582 15.2198 15.0786 14.914 15.1875 14.5631L16.7963 9.5006C16.8737 9.24999 16.8916 8.98479 16.8487 8.72603C16.8057 8.46728 16.703 8.22211 16.5488 8.00997ZM2.25 3.93747C2.24986 3.86067 2.26545 3.78466 2.29581 3.71412C2.32616 3.64358 2.37064 3.58 2.4265 3.5273C2.48236 3.4746 2.54842 3.4339 2.62061 3.4077C2.6928 3.3815 2.76959 3.37036 2.84625 3.37497H5.90625C6.04449 3.37496 6.1789 3.42042 6.28875 3.50435L8.53875 5.25935C8.84457 5.49643 9.22055 5.62505 9.6075 5.62497H13.2525C13.3292 5.62036 13.406 5.6315 13.4781 5.6577C13.5503 5.6839 13.6164 5.7246 13.6723 5.7773C13.7281 5.83 13.7726 5.89358 13.8029 5.96412C13.8333 6.03466 13.8489 6.11068 13.8488 6.18747V7.31247H4.84875C4.48433 7.30701 4.12794 7.41968 3.83288 7.63362C3.53782 7.84756 3.31996 8.15128 3.21188 8.49935L2.25 11.5537V3.93747ZM15.75 9.1631L14.1413 14.2256C14.1051 14.3452 14.0303 14.4493 13.9284 14.5216C13.8266 14.594 13.7035 14.6303 13.5788 14.625H2.89125C2.76439 14.6247 2.64068 14.5854 2.53688 14.5125L4.33688 8.83685C4.37299 8.71727 4.44787 8.61312 4.54972 8.54081C4.65156 8.46849 4.77458 8.43214 4.89938 8.43747H15.1538C15.2485 8.43681 15.3422 8.45835 15.4271 8.50035C15.5121 8.54235 15.5861 8.60365 15.6431 8.67935C15.6967 8.74647 15.7342 8.82497 15.7527 8.90882C15.7712 8.99267 15.7703 9.07965 15.75 9.1631Z" fill="black"/>
</svg>
