<svg width="9" height="7" viewBox="0 0 9 7" fill="none" xmlns="http://www.w3.org/2000/svg">
<path d="M8.48059 0.883448C8.15835 0.483676 7.70315 0.197783 7.18812 0.0716989C6.67308 -0.0543856 6.12811 -0.0133435 5.64076 0.188232C5.20455 0.365974 4.81552 0.665646 4.5 1.06333C4.18448 0.664673 3.79545 0.365001 3.35924 0.188232C2.87189 -0.0133435 2.32692 -0.0543856 1.81188 0.0716989C1.29685 0.197783 0.841648 0.483676 0.519405 0.883448C0.179588 1.30388 0 1.82933 0 2.40281C0 3.22812 0.521259 4.13356 1.54915 5.095C2.38675 5.87811 3.37654 6.51946 3.89183 6.83197C4.07339 6.94169 4.28444 7 4.5 7C4.71556 7 4.92661 6.94169 5.10817 6.83197C5.62304 6.51946 6.61325 5.87811 7.45085 5.095C8.47874 4.13395 9 3.22812 9 2.40281C9 1.82933 8.82041 1.30388 8.48059 0.883448Z" fill="url(#paint0_linear_3248_24290)"/>
<defs>
<linearGradient id="paint0_linear_3248_24290" x1="4.5" y1="0" x2="4.5" y2="7" gradientUnits="userSpaceOnUse">
<stop stop-color="#D284CF"/>
<stop offset="1" stop-color="#6C96EA"/>
</linearGradient>
</defs>
</svg>