<svg width="22" height="22" viewBox="0 0 22 22" fill="none" xmlns="http://www.w3.org/2000/svg">
<g clip-path="url(#clip0_3069_27464)">
<path d="M11.2684 4.36457C8.03855 4.36457 5.41089 6.99223 5.41089 10.222C5.41089 11.5454 5.84439 12.7951 6.66458 13.8356C6.82175 14.0351 6.99103 14.2315 7.15464 14.4215C7.64328 14.9885 8.1047 15.5241 8.26895 16.1265C8.27249 16.1395 8.3034 16.2659 8.29884 16.6965L8.29805 16.7588C8.2931 17.1083 8.28649 17.5869 8.64038 17.9458C8.88274 18.1916 9.2224 18.3112 9.67902 18.3112H12.8468C13.3399 18.3112 13.6943 18.1905 13.9305 17.9424C14.2499 17.6067 14.2285 17.1731 14.2143 16.8862C14.2118 16.8354 14.2091 16.7842 14.2085 16.7333C14.2034 16.3022 14.2356 16.1807 14.2369 16.1756C14.4038 15.5733 14.9443 14.9381 15.4213 14.3778C15.5805 14.1908 15.7308 14.0142 15.8708 13.8367C16.6913 12.796 17.125 11.5461 17.125 10.2221C17.125 6.99231 14.4978 4.36457 11.2684 4.36457ZM14.9443 13.106C14.8179 13.2661 14.6746 13.4346 14.5229 13.613C13.9667 14.2664 13.3364 15.007 13.1 15.8604C13.0662 15.9821 13.0223 16.2062 13.0288 16.7472C13.0296 16.8129 13.0326 16.8789 13.0359 16.9444C13.0385 16.9961 13.0418 17.0642 13.0415 17.1182C13 17.1249 12.9373 17.1312 12.8468 17.1312H9.67902C9.57865 17.1312 9.51997 17.1206 9.48984 17.1126C9.47427 17.0357 9.47647 16.876 9.47789 16.7754L9.47883 16.709C9.48449 16.1647 9.44084 15.939 9.40748 15.8163C9.17308 14.9561 8.57565 14.2628 8.04862 13.6513C7.88611 13.4626 7.73248 13.2844 7.59136 13.1052C6.93691 12.2748 6.59096 11.2777 6.59096 10.222C6.59096 7.64276 8.68931 5.5444 11.2685 5.5444C13.8473 5.5444 15.9453 7.64276 15.9453 10.222C15.9451 11.2783 15.5991 12.2756 14.9443 13.106Z" fill="#000002"/>
<path d="M12.7247 18.8443H9.81099C9.1821 18.8443 8.67041 19.356 8.67041 19.9849V20.8593C8.67041 21.4882 9.1821 21.9999 9.81099 21.9999H12.7247C13.3536 21.9999 13.8652 21.4882 13.8652 20.8593V19.9849C13.8652 19.356 13.3536 18.8443 12.7247 18.8443ZM12.6853 20.8201H9.85032V20.0243H12.6853V20.8201Z" fill="#000002"/>
<path d="M11.2679 3.60101C11.5938 3.60101 11.8579 3.33695 11.8579 3.01105V0.589956C11.8579 0.264064 11.5938 0 11.2679 0C10.942 0 10.678 0.264064 10.678 0.589956V3.01105C10.678 3.33695 10.9421 3.60101 11.2679 3.60101Z" fill="#000002"/>
<path d="M19.0296 2.72151C18.8047 2.48592 18.4313 2.47718 18.1954 2.702L16.4043 4.4113C16.1686 4.63619 16.1599 5.00967 16.3848 5.24541C16.5008 5.36687 16.656 5.42806 16.8117 5.42806C16.958 5.42806 17.1047 5.37395 17.2189 5.26492L19.0101 3.55555C19.2458 3.33065 19.2545 2.95717 19.0296 2.72151Z" fill="#000002"/>
<path d="M20.7879 8.62114C20.7876 8.62114 20.7873 8.62114 20.787 8.62114L18.4813 8.62484C18.1555 8.62539 17.8918 8.88992 17.8923 9.21574C17.8929 9.54131 18.1569 9.80475 18.4823 9.80475C18.4826 9.80475 18.4829 9.80475 18.4832 9.80475L20.7889 9.80105C21.1148 9.8005 21.3784 9.53596 21.3779 9.21015C21.3774 8.88457 21.1133 8.62114 20.7879 8.62114Z" fill="#000002"/>
<path d="M5.85134 5.08809C6.07623 4.85242 6.06757 4.47902 5.83183 4.25397L4.04072 2.54468C3.80521 2.31986 3.43173 2.32844 3.2066 2.56418C2.98171 2.79985 2.99037 3.17325 3.22611 3.3983L5.01722 5.10768C5.13143 5.2167 5.27798 5.27082 5.42444 5.27082C5.58003 5.27074 5.73539 5.20954 5.85134 5.08809Z" fill="#000002"/>
<path d="M3.51852 8.62484L1.21297 8.62114C1.21266 8.62114 1.21234 8.62114 1.21203 8.62114C0.886607 8.62114 0.622622 8.88473 0.622071 9.21015C0.621521 9.53596 0.88527 9.8005 1.21108 9.80105L3.51663 9.80475C3.51694 9.80475 3.51726 9.80475 3.51757 9.80475C3.84299 9.80475 4.10698 9.54116 4.10753 9.21574C4.10816 8.88992 3.84441 8.62531 3.51852 8.62484Z" fill="#000002"/>
</g>
<defs>
<clipPath id="clip0_3069_27464">
<rect width="22" height="22" fill="white"/>
</clipPath>
</defs>
</svg>
