<svg width="31" height="31" viewBox="0 0 31 31" fill="none" xmlns="http://www.w3.org/2000/svg">
<g clip-path="url(#clip0_3069_27960)">
<path d="M21.9019 12.4892H16.0525C16.7566 10.1326 16.7563 9.05766 16.7561 7.42076V7.32947C16.7561 5.40829 15.1847 3.84518 13.2534 3.84518H12.7345C12.0427 3.84518 11.2173 4.34824 11.0214 5.19164C10.2014 8.35711 8.98955 11.673 6.2271 12.3698H0.908203C0.406563 12.3698 0 12.7763 0 13.278V25.7036C0 26.2052 0.406563 26.6118 0.908203 26.6118H6.18855L9.04135 27.5517C10.029 27.8783 11.0446 28.0441 12.0597 28.0441H20.172H20.1723C20.8757 28.0441 21.5372 27.7718 22.0353 27.2775C22.5348 26.7813 22.8101 26.1212 22.8101 25.4186C22.8101 25.0969 22.7517 24.7885 22.645 24.5035C23.7389 24.1835 24.5399 23.1752 24.5399 21.9839C24.5399 21.3281 24.2968 20.7274 23.8957 20.2666C24.2968 19.8061 24.5399 19.2054 24.5399 18.5493C24.5399 17.8935 24.2968 17.2927 23.8957 16.832C24.2968 16.3715 24.5399 15.7708 24.5399 15.1147C24.5399 13.667 23.3564 12.4892 21.9019 12.4892ZM1.81641 14.1862H5.42628V24.7953H1.81641V14.1862ZM21.9019 17.7402C22.355 17.7402 22.7235 18.1033 22.7235 18.5493C22.7235 18.9954 22.355 19.3584 21.9019 19.3584C21.4002 19.3584 20.9937 19.765 20.9937 20.2666C20.9937 20.7683 21.4002 21.1748 21.9019 21.1748C22.355 21.1748 22.7235 21.5379 22.7235 21.9839C22.7235 22.4302 22.355 22.793 21.9019 22.793H20.1723C19.6706 22.793 19.2641 23.1998 19.2641 23.7012C19.2641 24.2029 19.6706 24.6095 20.1723 24.6095C20.6252 24.6095 20.9937 24.9725 20.9937 25.4186C20.9937 25.6335 20.909 25.836 20.7555 25.9883C20.6001 26.1428 20.3929 26.2277 20.1723 26.2277H12.0597C11.2388 26.2277 10.4152 26.0928 9.61087 25.8268L7.24268 25.0465V13.9565C8.68611 13.435 9.89587 12.3615 10.8459 10.7568C11.8036 9.13925 12.3804 7.18803 12.7761 5.66159H13.2534C14.1833 5.66159 14.9397 6.40991 14.9397 7.32947V7.42123C14.9399 9.24237 14.9402 10.1565 13.9492 13.1084C13.8562 13.3853 13.9021 13.6904 14.0729 13.9277C14.2434 14.1649 14.518 14.3056 14.8101 14.3056H21.9019C22.355 14.3056 22.7235 14.6686 22.7235 15.1147C22.7235 15.5608 22.355 15.9238 21.9019 15.9238C21.4005 15.9238 20.9937 16.3304 20.9937 16.832C20.9937 17.3337 21.4002 17.7402 21.9019 17.7402Z" fill="black"/>
<path d="M23.9373 3.92822H22.8997V2.90625C22.8997 2.40461 22.4932 1.99805 21.9915 1.99805C21.4901 1.99805 21.0833 2.40461 21.0833 2.90625V3.92822H20.046C19.5443 3.92822 19.1378 4.33478 19.1378 4.83642C19.1378 5.33782 19.5443 5.74462 20.046 5.74462H21.0833V6.76659C21.0833 7.26799 21.4901 7.67479 21.9915 7.67479C22.4932 7.67479 22.8997 7.26799 22.8997 6.76659V5.74462H23.9373C24.4387 5.74462 24.8455 5.33782 24.8455 4.83642C24.8455 4.33478 24.4387 3.92822 23.9373 3.92822Z" fill="black"/>
<path d="M27.2383 10.7142H27.7567V11.2213C27.7567 11.7229 28.1635 12.1295 28.6649 12.1295C29.1666 12.1295 29.5731 11.7229 29.5731 11.2213V10.7142H30.0918C30.5934 10.7142 31 10.3074 31 9.80599C31 9.30435 30.5934 8.89779 30.0918 8.89779H29.5734V8.39047C29.5734 7.88907 29.1666 7.48227 28.6652 7.48227C28.1635 7.48227 27.757 7.88907 27.757 8.39047V8.89779H27.2383C26.7369 8.89779 26.3301 9.30435 26.3301 9.80599C26.3301 10.3074 26.7366 10.7142 27.2383 10.7142Z" fill="black"/>
<path d="M30.0913 25.7097H29.5729V25.2024C29.5729 24.701 29.1661 24.2942 28.6647 24.2942C28.1631 24.2942 27.7565 24.701 27.7565 25.2024V25.7097H27.2378C26.7362 25.7097 26.3296 26.1163 26.3296 26.6179C26.3296 27.1193 26.7362 27.5261 27.2378 27.5261H27.7565V28.0332C27.7565 28.5348 28.1631 28.9414 28.6647 28.9414C29.1661 28.9414 29.5729 28.5348 29.5729 28.0332V27.5261H30.0913C30.593 27.5261 30.9995 27.1193 30.9995 26.6179C30.9995 26.1163 30.593 25.7097 30.0913 25.7097Z" fill="black"/>
</g>
<defs>
<clipPath id="clip0_3069_27960">
<rect width="31" height="31" fill="white"/>
</clipPath>
</defs>
</svg>
