<svg width="41" height="41" viewBox="0 0 41 41" fill="none" xmlns="http://www.w3.org/2000/svg">
<circle cx="20.5" cy="20.5" r="20.5" fill="#F9F9F9"/>
<g clip-path="url(#clip0_3069_28299)">
<path d="M30.61 12.1571L22.673 7.57972C21.3327 6.80674 19.6673 6.80679 18.327 7.57972L10.39 12.1571C9.0471 12.9315 8.21289 14.3758 8.21289 15.9261V25.0738C8.21289 26.6242 9.0471 28.0684 10.39 28.8428L18.327 33.4202C19.6675 34.1934 21.3329 34.1931 22.673 33.4202L30.61 28.8428C31.9529 28.0684 32.7871 26.6242 32.7871 25.0738V15.9261C32.7871 14.3758 31.9529 12.9316 30.61 12.1571ZM30.6777 25.0738C30.6777 25.8724 30.2481 26.6164 29.5563 27.0152L21.6193 31.5926C20.9288 31.9909 20.0711 31.9909 19.3807 31.5926L11.4437 27.0152C10.7519 26.6163 10.3223 25.8724 10.3223 25.0738V15.9261C10.3223 15.1276 10.7519 14.3837 11.4437 13.9848L19.3807 9.40738C20.0712 9.00913 20.9292 9.00929 21.6193 9.40738L29.5563 13.9847C30.2481 14.3837 30.6777 15.1275 30.6777 15.9261V25.0738Z" fill="#0088CC"/>
<path d="M19.4977 19.6947L15.5805 16.3796C15.1359 16.0033 14.4704 16.0587 14.0941 16.5035C13.7179 16.9483 13.7733 17.6138 14.218 17.9901L17.1837 20.5L14.218 23.0098C13.7733 23.3861 13.7179 24.0516 14.0941 24.4964C14.4713 24.9421 15.137 24.9956 15.5805 24.6202L19.4977 21.3052C19.996 20.8835 19.9946 20.1152 19.4977 19.6947Z" fill="#0088CC"/>
<path d="M26.1007 22.7601H21.3549C20.7724 22.7601 20.3002 23.2324 20.3002 23.815C20.3002 24.3976 20.7724 24.8698 21.3549 24.8698H26.1007C26.6831 24.8698 27.1554 24.3976 27.1554 23.815C27.1554 23.2324 26.6832 22.7601 26.1007 22.7601Z" fill="#0088CC"/>
</g>
<circle cx="20.5" cy="20.5" r="20.5" fill="#F9F9F9"/>
<g clip-path="url(#clip1_3069_28299)">
<path d="M30.61 12.1571L22.673 7.57972C21.3327 6.80674 19.6673 6.80679 18.327 7.57972L10.39 12.1571C9.0471 12.9315 8.21289 14.3758 8.21289 15.9261V25.0738C8.21289 26.6242 9.0471 28.0684 10.39 28.8428L18.327 33.4202C19.6675 34.1934 21.3329 34.1931 22.673 33.4202L30.61 28.8428C31.9529 28.0684 32.7871 26.6242 32.7871 25.0738V15.9261C32.7871 14.3758 31.9529 12.9316 30.61 12.1571ZM30.6777 25.0738C30.6777 25.8724 30.2481 26.6164 29.5563 27.0152L21.6193 31.5926C20.9288 31.9909 20.0711 31.9909 19.3807 31.5926L11.4437 27.0152C10.7519 26.6163 10.3223 25.8724 10.3223 25.0738V15.9261C10.3223 15.1276 10.7519 14.3837 11.4437 13.9848L19.3807 9.40738C20.0712 9.00913 20.9292 9.00929 21.6193 9.40738L29.5563 13.9847C30.2481 14.3837 30.6777 15.1275 30.6777 15.9261V25.0738Z" fill="#0088CC"/>
<path d="M14.3219 26.1085L14.3213 26.1083C14.1822 26.0574 14.0628 25.9631 13.9788 25.8396C13.8948 25.7162 13.8501 25.5694 13.85 25.4194L13.85 25.4193L13.85 24.6451V24.6449C13.8523 22.7081 14.5546 20.8423 15.8185 19.4194C17.0512 18.0315 18.7302 17.1642 20.5358 16.9812V14.5802V14.58C20.5359 14.437 20.5766 14.2967 20.6536 14.1768C20.7305 14.0569 20.8405 13.9625 20.9703 13.9064C21.1002 13.8504 21.2435 13.8356 21.3819 13.8642C21.5202 13.8929 21.6463 13.9634 21.7448 14.0659L21.7449 14.066L26.9448 19.4855C26.9448 19.4855 26.9449 19.4855 26.9449 19.4856C27.0135 19.557 27.0668 19.6421 27.1019 19.7353C27.137 19.8285 27.1531 19.9281 27.1495 20.0278C27.1458 20.1276 27.1224 20.2256 27.0806 20.3159C27.0387 20.4062 26.9792 20.487 26.9054 20.5529L21.7053 25.1983L21.7053 25.1983C21.6028 25.2898 21.4766 25.3494 21.3414 25.369C21.2061 25.3887 21.0685 25.3674 20.945 25.3082C20.8216 25.2489 20.718 25.1545 20.6458 25.037C20.5737 24.9195 20.5357 24.7835 20.5358 24.645M14.3219 26.1085L20.6858 24.6451M14.3219 26.1085C14.3974 26.1358 14.4768 26.1499 14.5569 26.15L14.5571 26M14.3219 26.1085L14.3729 25.9675C14.4322 25.9889 14.4944 25.9999 14.5571 26M20.5358 24.645L20.6858 24.6451M20.5358 24.645V24.6451H20.6858M20.5358 24.645V22.282M20.6858 24.6451V22.2789C20.6357 22.2793 20.5857 22.2803 20.5358 22.282M20.5358 22.282V22.1319C20.5857 22.1302 20.6357 22.1292 20.6858 22.1289L15.9567 24.529L14.991 25.7855C14.9385 25.8527 14.8723 25.9067 14.7973 25.9438C14.7222 25.9809 14.6402 26.0001 14.5571 26M20.5358 22.282C19.7009 22.3103 18.8804 22.5218 18.1279 22.9037C17.3301 23.3086 16.6289 23.8949 16.076 24.6199L16.0756 24.6204L15.1099 25.8769L15.1092 25.8779C15.0431 25.9624 14.9594 26.031 14.8638 26.0783C14.7682 26.1256 14.6633 26.1501 14.5569 26.15L14.5571 26M21.95 16.3551V17.6771C21.95 17.8689 21.877 18.0541 21.7451 18.1915C21.6131 18.3291 21.4326 18.4077 21.2431 18.4077C19.8167 18.4097 18.437 18.9429 17.353 19.9126C16.4044 20.7612 15.737 21.8953 15.4384 23.153C16.0597 22.4839 16.7942 21.9368 17.6069 21.5405C18.5877 21.0622 19.6581 20.8152 20.7416 20.8175H20.7415V20.9675L20.7418 20.8175L21.95 16.3551ZM21.95 16.3551V16.1385L21.8 15.9823V16.1989L21.95 16.3551ZM21.95 23.0474L21.8 23.1813V23.3823L21.95 23.2484V23.0474ZM25.5138 20.0672L25.6258 19.9672L25.5218 19.859L25.4099 19.9589L25.5138 20.0672ZM15.1849 23.6773C15.247 23.5994 15.3106 23.5228 15.3756 23.4477L15.1849 23.6773Z" fill="#0088CC" stroke="#0088CC" stroke-width="0.3"/>
</g>
<defs>
<clipPath id="clip0_3069_28299">
<rect width="27" height="27" fill="white" transform="translate(7 7)"/>
</clipPath>
<clipPath id="clip1_3069_28299">
<rect width="27" height="27" fill="white" transform="translate(7 7)"/>
</clipPath>
</defs>
</svg>
