<svg width="16" height="16" viewBox="0 0 16 16" fill="none" xmlns="http://www.w3.org/2000/svg">
<path d="M0.289062 2.93179V0.610789C0.289062 0.273424 0.555033 0 0.883203 0H3.14094C3.46911 0 3.73508 0.273424 3.73508 0.610789C3.73508 0.948155 3.46911 1.22158 3.14094 1.22158H1.47734V2.93179C1.47734 3.26915 1.21137 3.54258 0.883203 3.54258C0.555033 3.54258 0.289062 3.26915 0.289062 2.93179ZM14.9049 0H12.6472C12.319 0 12.053 0.273424 12.053 0.610789C12.053 0.948155 12.319 1.22158 12.6472 1.22158H14.3108V2.93179C14.3108 3.26915 14.5768 3.54258 14.9049 3.54258C15.2331 3.54258 15.4991 3.26915 15.4991 2.93179V0.610789C15.4991 0.273424 15.2331 0 14.9049 0ZM3.14094 14.4146H1.47734V12.7044C1.47734 12.3671 1.21137 12.0936 0.883203 12.0936C0.555033 12.0936 0.289062 12.3671 0.289062 12.7044V15.0254C0.289062 15.3628 0.555033 15.6362 0.883203 15.6362H3.14094C3.46911 15.6362 3.73508 15.3628 3.73508 15.0254C3.73508 14.6881 3.46911 14.4146 3.14094 14.4146ZM14.9049 12.0936C14.5768 12.0936 14.3108 12.3671 14.3108 12.7044V14.4146H12.6472C12.319 14.4146 12.053 14.6881 12.053 15.0254C12.053 15.3628 12.319 15.6362 12.6472 15.6362H14.9049C15.2331 15.6362 15.4991 15.3628 15.4991 15.0254V12.7044C15.4991 12.3671 15.2331 12.0936 14.9049 12.0936ZM7.37419 3.00814V6.67287C7.37419 7.01024 7.10822 7.28366 6.78005 7.28366H3.2152C2.88704 7.28366 2.62106 7.01024 2.62106 6.67287V3.00814C2.62106 2.67077 2.88704 2.39735 3.2152 2.39735H6.78005C7.10822 2.39735 7.37419 2.67077 7.37419 3.00814ZM6.18591 3.61893H3.80935V6.06208H6.18591V3.61893ZM12.87 7.28366H9.30515C8.97698 7.28366 8.71101 7.01024 8.71101 6.67287V3.00814C8.71101 2.67077 8.97698 2.39735 9.30515 2.39735H12.87C13.1982 2.39735 13.4641 2.67077 13.4641 3.00814V6.67287C13.4641 7.01024 13.1982 7.28366 12.87 7.28366ZM12.2758 3.61893H9.89929V6.06208H12.2758V3.61893ZM7.37419 9.26873V12.9335C7.37419 13.2708 7.10822 13.5443 6.78005 13.5443H3.2152C2.88704 13.5443 2.62106 13.2708 2.62106 12.9335V9.26873C2.62106 8.93136 2.88704 8.65794 3.2152 8.65794H6.78005C7.10822 8.65794 7.37419 8.93136 7.37419 9.26873ZM6.18591 9.87952H3.80935V12.3227H6.18591V9.87952ZM12.105 12.7579H10.0701C9.74193 12.7579 9.47596 12.4844 9.47596 12.1471V10.0551C9.47596 9.71775 9.74193 9.44433 10.0701 9.44433H12.105C12.4332 9.44433 12.6992 9.71775 12.6992 10.0551V12.1471C12.6992 12.4844 12.4332 12.7579 12.105 12.7579ZM11.5109 10.6659H10.6642V11.5363H11.5109V10.6659Z" fill="#728A96"/>
</svg>
