<svg width="20" height="20" viewBox="0 0 20 20" fill="none" xmlns="http://www.w3.org/2000/svg">
<path d="M10.9169 0.833496C8.90166 0.843304 6.94662 1.52135 5.35807 2.76139C3.76952 4.00144 2.63721 5.73343 2.13854 7.686L1.52854 6.7635C1.47079 6.66692 1.39408 6.58303 1.30304 6.5169C1.21199 6.45077 1.10849 6.40377 0.998785 6.37873C0.889079 6.35368 0.775438 6.35111 0.664713 6.37118C0.553988 6.39125 0.448474 6.43353 0.354534 6.49548C0.260594 6.55743 0.180174 6.63777 0.118124 6.73164C0.0560737 6.82551 0.0136784 6.93098 -0.00650514 7.04169C-0.0266887 7.15239 -0.0242424 7.26603 0.000686213 7.37577C0.0256148 7.4855 0.0725093 7.58905 0.138542 7.68016L1.97188 10.4585C2.09923 10.6367 2.28698 10.7626 2.50021 10.8127C2.71793 10.8559 2.94392 10.8125 3.13021 10.6918L5.88021 8.83933C5.97503 8.78012 6.05696 8.70244 6.12114 8.61091C6.18531 8.51938 6.23041 8.41587 6.25376 8.30655C6.27711 8.19723 6.27822 8.08433 6.25704 7.97457C6.23585 7.86481 6.1928 7.76043 6.13045 7.66765C6.06809 7.57488 5.98771 7.49559 5.89408 7.43452C5.80045 7.37345 5.69549 7.33184 5.58545 7.31217C5.4754 7.2925 5.36253 7.29517 5.25354 7.32002C5.14455 7.34487 5.04168 7.3914 4.95104 7.45683L3.70021 8.30016C4.03311 6.94882 4.73915 5.71826 5.73778 4.74888C6.73641 3.77951 7.9874 3.11035 9.34804 2.81776C10.7087 2.52516 12.1242 2.62092 13.433 3.0941C14.7418 3.56728 15.8913 4.39882 16.7503 5.49387C17.6093 6.58891 18.1431 7.90334 18.291 9.28721C18.4389 10.6711 18.1948 12.0686 17.5866 13.3205C16.9784 14.5723 16.0305 15.6279 14.8512 16.3669C13.6719 17.106 12.3086 17.4987 10.9169 17.5002C9.72383 17.4969 8.54919 17.2057 7.49283 16.6512C6.43647 16.0967 5.52962 15.2953 4.84937 14.3152C4.78845 14.2216 4.70935 14.1413 4.61677 14.0789C4.52419 14.0165 4.42002 13.9733 4.31044 13.952C4.20087 13.9306 4.08811 13.9315 3.97888 13.9546C3.86965 13.9776 3.76617 14.0224 3.67458 14.0863C3.58299 14.1501 3.50516 14.2317 3.44571 14.3262C3.38626 14.4207 3.34641 14.5261 3.32851 14.6363C3.31061 14.7465 3.31504 14.8592 3.34153 14.9677C3.36802 15.0761 3.41603 15.1781 3.48271 15.2677C4.5886 16.862 6.17674 18.0595 8.01372 18.6842C9.8507 19.309 11.8396 19.328 13.6882 18.7384C15.5368 18.1489 17.1475 16.982 18.2837 15.4091C19.4198 13.8362 20.0215 11.9404 20.0002 10.0002C20.0084 7.58092 19.0567 5.2572 17.3539 3.53873C15.651 1.82027 13.3361 0.847385 10.9169 0.833496Z" fill="#728A96"/>
<path d="M10.8333 4.9585C10.6123 4.9585 10.4004 5.04629 10.2441 5.20257C10.0878 5.35885 10 5.57082 10 5.79183V10.0002C10.0035 10.2204 10.0909 10.4311 10.2442 10.5893L12.7442 13.1118C12.901 13.2662 13.112 13.3533 13.3321 13.3544C13.5523 13.3554 13.7641 13.2705 13.9225 13.1177C14.0794 12.9621 14.1681 12.7505 14.169 12.5295C14.1699 12.3086 14.0831 12.0963 13.9275 11.9393L11.6667 9.65766V5.79183C11.6667 5.57082 11.5789 5.35885 11.4226 5.20257C11.2663 5.04629 11.0543 4.9585 10.8333 4.9585Z" fill="#728A96"/>
</svg>
