<svg width="39" height="26" viewBox="0 0 39 26" fill="none" xmlns="http://www.w3.org/2000/svg">
<path d="M2.58895 15.5295H3.88302V21.353C3.88302 21.5246 3.95119 21.6891 4.07253 21.8105C4.19387 21.9318 4.35845 22 4.53005 22H14.8826C15.0542 22 15.2188 21.9318 15.3401 21.8105C15.4615 21.6891 15.5296 21.5246 15.5296 21.353C15.5296 21.1813 15.4615 21.0168 15.3401 20.8954C15.2188 20.7741 15.0542 20.7059 14.8826 20.7059H5.17709V14.8825C5.17709 14.7109 5.10892 14.5463 4.98758 14.425C4.86623 14.3036 4.70166 14.2354 4.53005 14.2354H2.58895C2.41297 14.2357 2.23878 14.2001 2.07704 14.1307C1.9153 14.0613 1.76941 13.9597 1.64828 13.8321C1.52716 13.7044 1.43334 13.5534 1.37258 13.3882C1.31182 13.223 1.28538 13.0472 1.29488 12.8715C1.33172 12.5281 1.49679 12.2113 1.75709 11.9843C2.01739 11.7573 2.35375 11.637 2.69895 11.6473H4.53005C4.70166 11.6473 4.86623 11.5791 4.98758 11.4577C5.10892 11.3364 5.17709 11.1718 5.17709 11.0002V5.1768H11.0004C11.172 5.1768 11.3366 5.10863 11.4579 4.98729C11.5793 4.86594 11.6474 4.70137 11.6474 4.52976V2.58862C11.6469 2.41298 11.6824 2.2391 11.7517 2.07773C11.8211 1.91636 11.9228 1.77092 12.0505 1.6504C12.1771 1.52744 12.3279 1.43228 12.4934 1.37099C12.6588 1.30971 12.8353 1.28367 13.0114 1.29453C13.3548 1.33137 13.6716 1.49644 13.8985 1.75675C14.1255 2.01705 14.2459 2.35342 14.2356 2.69862V4.52976C14.2356 4.70137 14.3037 4.86594 14.4251 4.98729C14.5464 5.10863 14.711 5.1768 14.8826 5.1768H20.7059V5.82385C20.7059 5.99546 20.7741 6.16004 20.8954 6.28138C21.0168 6.40273 21.1814 6.4709 21.353 6.4709C21.5246 6.4709 21.6891 6.40273 21.8105 6.28138C21.9318 6.16004 22 5.99546 22 5.82385V4.52976C22 4.35815 21.9318 4.19357 21.8105 4.07223C21.6891 3.95088 21.5246 3.88271 21.353 3.88271H15.5296V2.69862C15.5439 2.0211 15.2978 1.36392 14.8419 0.862525C14.386 0.361128 13.7551 0.0537256 13.0793 0.00367225C12.7283 -0.0150466 12.3771 0.0379384 12.0473 0.159396C11.7174 0.280853 11.4157 0.468236 11.1607 0.710117C10.9056 0.951997 10.7024 1.2433 10.5637 1.56627C10.4249 1.88924 10.3533 2.23709 10.3534 2.58862V3.88271H4.53005C4.35845 3.88271 4.19387 3.95088 4.07253 4.07223C3.95119 4.19357 3.88302 4.35815 3.88302 4.52976V10.3532H2.69895C2.02144 10.3389 1.36427 10.5851 0.862882 11.041C0.361495 11.4969 0.0540975 12.1277 0.00404493 12.8035C-0.0157017 13.155 0.0370002 13.5068 0.158879 13.837C0.280759 14.1673 0.469214 14.4689 0.712548 14.7233C0.954672 14.9774 1.24576 15.1799 1.56825 15.3185C1.89074 15.457 2.23795 15.5288 2.58895 15.5295Z" fill="#313855"/>
<path d="M16.5002 8.19645V14.6669C16.5002 14.8385 16.5684 15.0031 16.6897 15.1244C16.8111 15.2458 16.9756 15.314 17.1472 15.314H19.088C19.4312 15.314 19.7603 15.4503 20.0029 15.693C20.2456 15.9357 20.3819 16.2648 20.3819 16.608C20.3819 16.9513 20.2456 17.2804 20.0029 17.5231C19.7603 17.7658 19.4312 17.9021 19.088 17.9021H17.1472C16.9756 17.9021 16.8111 17.9703 16.6897 18.0917C16.5684 18.213 16.5002 18.3776 16.5002 18.5492V25.0196C16.5002 25.1912 16.5684 25.3558 16.6897 25.4772C16.8111 25.5985 16.9756 25.6667 17.1472 25.6667H23.6166C23.7882 25.6667 23.9528 25.5985 24.0741 25.4772C24.1954 25.3558 24.2636 25.1912 24.2636 25.0196V23.1885C24.2533 22.8434 24.3735 22.5071 24.6003 22.2468C24.8271 21.9865 25.1437 21.8214 25.487 21.7844C25.6627 21.7748 25.8386 21.8012 26.0038 21.8619C26.169 21.9226 26.3201 22.0164 26.4478 22.1376C26.5755 22.2587 26.6772 22.4046 26.7466 22.5664C26.816 22.7282 26.8516 22.9025 26.8514 23.0785V25.0196C26.8514 25.1912 26.9195 25.3558 27.0409 25.4772C27.1622 25.5985 27.3267 25.6667 27.4983 25.6667H33.9678C34.1393 25.6667 34.3039 25.5985 34.4252 25.4772C34.5465 25.3558 34.6147 25.1912 34.6147 25.0196V19.1962H35.7986C36.4766 19.2113 37.1345 18.9655 37.6365 18.5096C38.1385 18.0536 38.4463 17.4223 38.4964 16.7459C38.5157 16.3942 38.4625 16.0423 38.3401 15.712C38.2176 15.3817 38.0286 15.0802 37.7847 14.8261C37.5426 14.572 37.2516 14.3695 36.9292 14.2309C36.6067 14.0924 36.2595 14.0206 35.9086 14.0199H34.6147V8.19645C34.6147 8.02484 34.5465 7.86026 34.4252 7.73892C34.3039 7.61757 34.1393 7.5494 33.9678 7.5494H28.1453V6.36531C28.1595 5.68779 27.9134 5.03061 27.4576 4.52921C27.0018 4.02782 26.371 3.72041 25.6953 3.67036C25.3443 3.65164 24.9932 3.70463 24.6634 3.82608C24.3335 3.94754 24.0319 4.13492 23.7769 4.3768C23.5218 4.61868 23.3187 4.90999 23.1799 5.23296C23.0412 5.55592 22.9696 5.90378 22.9697 6.25531V7.5494H17.1472C16.9756 7.5494 16.8111 7.61757 16.6897 7.73892C16.5684 7.86026 16.5002 8.02484 16.5002 8.19645ZM17.7941 8.84349H23.6166C23.7882 8.84349 23.9528 8.77532 24.0741 8.65398C24.1954 8.53263 24.2636 8.36805 24.2636 8.19645V6.25531C24.2631 6.07967 24.2986 5.90579 24.3679 5.74442C24.4372 5.58304 24.5389 5.4376 24.6666 5.31709C24.793 5.19397 24.9438 5.09869 25.1093 5.0374C25.2748 4.9761 25.4512 4.95015 25.6273 4.96122C25.9707 4.99806 26.2875 5.16313 26.5144 5.42343C26.7413 5.68374 26.8616 6.02011 26.8514 6.36531V8.19645C26.8514 8.36805 26.9195 8.53263 27.0409 8.65398C27.1622 8.77532 27.3267 8.84349 27.4983 8.84349H33.3208V14.6669C33.3208 14.8385 33.389 15.0031 33.5103 15.1244C33.6316 15.2458 33.7962 15.314 33.9678 15.314H35.9086C36.0846 15.3137 36.2587 15.3493 36.4204 15.4187C36.5821 15.4881 36.728 15.5897 36.8491 15.7173C36.9702 15.845 37.064 15.996 37.1248 16.1612C37.1856 16.3264 37.212 16.5022 37.2025 16.6779C37.1656 17.0213 37.0006 17.3381 36.7403 17.5651C36.4801 17.7921 36.1438 17.9124 35.7986 17.9021H33.9678C33.7962 17.9021 33.6316 17.9703 33.5103 18.0917C33.389 18.213 33.3208 18.3776 33.3208 18.5492V24.3726H28.1453V23.0785C28.1453 22.7269 28.0738 22.379 27.9349 22.056C27.7961 21.733 27.593 21.4416 27.3379 21.1998C27.0828 20.9579 26.781 20.7705 26.4511 20.6491C26.1212 20.5277 25.7701 20.4747 25.419 20.4936C24.7434 20.5436 24.1127 20.851 23.657 21.3525C23.2012 21.8539 22.9553 22.511 22.9697 23.1885V24.3726H17.7941V19.1962H19.088C19.7743 19.1962 20.4326 18.9235 20.9179 18.4382C21.4032 17.9528 21.6758 17.2945 21.6758 16.608C21.6758 15.9216 21.4032 15.2633 20.9179 14.7779C20.4326 14.2925 19.7743 14.0199 19.088 14.0199H17.7941V8.84349Z" fill="#313855"/>
</svg>
