<svg width="24" height="24" viewBox="0 0 24 24" fill="none" xmlns="http://www.w3.org/2000/svg">
<rect width="24" height="24" rx="12" fill="#0088CC"/>
<path d="M5.39368 11.7355C8.88334 10.1831 11.2103 9.15973 12.3746 8.66527C15.699 7.2535 16.3897 7.00826 16.84 7.00008C16.939 6.99838 17.1604 7.02344 17.3038 7.14226C17.4249 7.2426 17.4583 7.37813 17.4742 7.47325C17.4901 7.56838 17.51 7.78508 17.4942 7.9544C17.3141 9.88701 16.5346 14.5769 16.138 16.7415C15.9702 17.6574 15.6398 17.9645 15.3199 17.9945C14.6248 18.0599 14.0969 17.5255 13.4236 17.0749C12.3701 16.3697 11.7749 15.9308 10.7522 15.2427C9.57034 14.4475 10.3365 14.0104 11.01 13.2962C11.1863 13.1092 14.2492 10.2648 14.3084 10.0067C14.3159 9.97446 14.3227 9.85417 14.2527 9.79065C14.1828 9.72713 14.0794 9.74885 14.0049 9.76612C13.8992 9.79061 12.2162 10.9264 8.95566 13.1736C8.47792 13.5086 8.04521 13.6718 7.6575 13.6632C7.23009 13.6538 6.40793 13.4165 5.79673 13.2136C5.04708 12.9648 4.45127 12.8333 4.50315 12.4107C4.53017 12.1906 4.82702 11.9656 5.39368 11.7355Z" fill="#F7F9FB"/>
</svg>
