<svg width="19" height="20" viewBox="0 0 19 20" fill="none" xmlns="http://www.w3.org/2000/svg">
<path fill-rule="evenodd" clip-rule="evenodd" d="M5.13725 4.91747L9.06375 1.11054C9.30469 0.876929 9.69535 0.876929 9.9363 1.11054L13.8628 4.91747C14.1037 5.15108 14.1037 5.52984 13.8628 5.76345C13.6218 5.99706 13.2312 5.99706 12.9902 5.76345L10.117 2.97772V11.9023C10.117 12.2327 9.84078 12.5005 9.50002 12.5005C9.15927 12.5005 8.88303 12.2327 8.88303 11.9023V2.97772L6.00981 5.76345C5.76886 5.99706 5.3782 5.99706 5.13725 5.76345C4.89631 5.52984 4.89631 5.15108 5.13725 4.91747Z" fill="black"/>
<path fill-rule="evenodd" clip-rule="evenodd" d="M0.57 7.49945C0.884802 7.49945 1.14 7.75835 1.14 8.07771V17.3299C1.14 17.6492 1.3952 17.9081 1.71 17.9081H17.29C17.6048 17.9081 17.86 17.6492 17.86 17.3299V8.07771C17.86 7.75835 18.1152 7.49945 18.43 7.49945C18.7448 7.49945 19 7.75835 19 8.07771V17.3299C19 18.288 18.2344 19.0647 17.29 19.0647H1.71C0.765593 19.0647 0 18.288 0 17.3299V8.07771C0 7.75835 0.255198 7.49945 0.57 7.49945Z" fill="black"/>
</svg>
