<svg width="21" height="24" viewBox="0 0 21 24" fill="none" xmlns="http://www.w3.org/2000/svg">
<path d="M9.73477 23.534C13.0074 23.5362 16.0361 21.8036 17.693 18.9813C19.3499 16.1591 19.3867 12.6701 17.7898 9.81347L18.6318 8.97149C19.0709 8.52432 19.0709 7.80776 18.6318 7.36055L17.9313 6.66003L20.1477 4.44013C20.4917 4.09636 20.5946 3.57918 20.4084 3.12989C20.2222 2.68065 19.7836 2.38788 19.2973 2.3882H16.1715C16.305 2.1485 16.3026 1.85637 16.1653 1.61884C16.0281 1.38131 15.7761 1.23344 15.5018 1.22938L15.0562 1.22245L14.8267 0.843353C14.6846 0.609112 14.4304 0.465973 14.1564 0.465973C13.8823 0.465973 13.6281 0.609112 13.486 0.843443L13.2573 1.22254L12.8105 1.22947C12.5362 1.23344 12.2842 1.38135 12.147 1.61888C12.0098 1.85646 12.0076 2.14864 12.1412 2.38824L12.3558 2.7727L12.1412 3.15715C12.0078 3.3968 12.0102 3.68884 12.1473 3.92633C12.2845 4.16381 12.5363 4.31173 12.8105 4.31596L13.2561 4.3229L13.4868 4.70235C13.6289 4.93668 13.8831 5.07982 14.1571 5.07982C14.4312 5.07982 14.6854 4.93668 14.8275 4.70235L15.0562 4.32326L15.5018 4.31596C15.7761 4.312 16.0281 4.16408 16.1653 3.92655C16.3026 3.68898 16.3048 3.3968 16.1711 3.15719H19.2973C19.4723 3.15755 19.6299 3.26325 19.6966 3.42505C19.7633 3.58684 19.726 3.77287 19.6022 3.8965L17.3857 6.11757L16.6794 5.41093C16.2322 4.97178 15.5157 4.97178 15.0685 5.41093L14.228 6.25139C10.8547 4.36678 6.66437 4.78368 3.72846 7.29599C0.792542 9.80829 -0.267015 13.8838 1.0735 17.5079C2.41402 21.1319 5.87073 23.5369 9.73477 23.534ZM15.1804 2.95994L15.488 3.54701L14.8294 3.55778C14.6969 3.5599 14.5749 3.63009 14.5064 3.74349L14.1438 4.30443L13.8051 3.74349C13.7366 3.63009 13.6146 3.55994 13.4822 3.55778L12.812 3.53201L13.1315 2.9599C13.1964 2.84352 13.1964 2.70182 13.1315 2.58545L12.8239 1.99838L13.4825 1.98761C13.615 1.9855 13.737 1.9153 13.8055 1.8019L14.1561 1.23479C14.1612 1.23398 14.1662 1.23664 14.1684 1.24132L14.5067 1.8019C14.5752 1.9153 14.6972 1.98545 14.8297 1.98761L15.5017 2.01338L15.1822 2.58549C15.1168 2.70151 15.1161 2.84321 15.1804 2.95994ZM15.6106 5.9565C15.757 5.81341 15.9909 5.81341 16.1374 5.9565L18.0847 7.90382C18.2278 8.05038 18.2278 8.2844 18.0847 8.43092L17.3738 9.14143C16.713 8.16771 15.8735 7.3282 14.8997 6.66738L15.6106 5.9565ZM9.73477 5.84846C14.4062 5.84846 18.1931 9.63537 18.1931 14.3068C18.1931 18.9781 14.4062 22.7651 9.73477 22.7651C5.06339 22.7651 1.27648 18.9781 1.27648 14.3068C1.28175 9.63758 5.0656 5.85373 9.73477 5.84846Z" fill="black"/>
<path d="M2.43006 13.92C2.44345 13.9215 2.45696 13.9223 2.47043 13.9223C2.66773 13.9221 2.83285 13.7726 2.85259 13.5763C3.16473 10.7454 5.16948 8.39012 7.91408 7.62973C8.11899 7.57368 8.23965 7.3621 8.1836 7.15724C8.12755 6.95233 7.91598 6.83167 7.71111 6.88772C4.66081 7.73398 2.43349 10.3528 2.08787 13.4994C2.06683 13.7098 2.2197 13.8977 2.43006 13.92Z" fill="black"/>
<path d="M7.69915 12.1126C7.54902 11.9625 7.30564 11.9625 7.15552 12.1126L5.23316 14.0349C5.08309 14.185 5.08309 14.4284 5.23316 14.5785L7.15552 16.5009C7.30636 16.6466 7.54618 16.6445 7.69446 16.4962C7.84278 16.3479 7.84485 16.1081 7.69915 15.9573L6.04861 14.3067L7.69915 12.6562C7.84922 12.5061 7.84922 12.2627 7.69915 12.1126Z" fill="black"/>
<path d="M11.7698 16.5009C11.9199 16.651 12.1633 16.651 12.3134 16.5009L14.2358 14.5785C14.3858 14.4284 14.3858 14.185 14.2358 14.0349L12.3134 12.1125C12.1626 11.9668 11.9227 11.9689 11.7745 12.1172C11.6262 12.2655 11.6241 12.5053 11.7698 12.6562L13.4203 14.3067L11.7698 15.9572C11.6197 16.1074 11.6197 16.3508 11.7698 16.5009Z" fill="black"/>
<path d="M8.82302 16.5863C8.86835 16.6045 8.91678 16.6137 8.96567 16.6136C9.123 16.6136 9.26447 16.5178 9.32282 16.3718L10.8607 12.5271C10.9116 12.3995 10.8906 12.2544 10.8056 12.1465C10.7206 12.0386 10.5844 11.9842 10.4485 12.0038C10.3125 12.0235 10.1973 12.1142 10.1464 12.2418L8.60852 16.0865C8.57067 16.1812 8.57198 16.2871 8.61221 16.3808C8.6524 16.4746 8.72827 16.5485 8.82302 16.5863Z" fill="black"/>
</svg>
