<svg width="20" height="20" viewBox="0 0 20 20" fill="none" xmlns="http://www.w3.org/2000/svg">
<path d="M10.7967 0.329688L12.7368 2.2698C12.9473 2.4803 13.2345 2.59941 13.5331 2.59941H16.276C16.8977 2.59941 17.4019 3.10361 17.4019 3.7253V6.46822C17.4019 6.76683 17.521 7.05401 17.7315 7.2645L19.6716 9.20462C20.1105 9.64355 20.1105 10.3566 19.6716 10.7972L17.7315 12.7373C17.521 12.9478 17.4019 13.235 17.4019 13.5336V16.2765C17.4019 16.8982 16.8977 17.4024 16.276 17.4024H13.5331C13.2345 17.4024 12.9473 17.5215 12.7368 17.732L10.7967 19.6721C10.3578 20.111 9.64469 20.111 9.20413 19.6721L7.26401 17.732C7.05352 17.5215 6.76634 17.4024 6.46773 17.4024H3.72481C3.10312 17.4024 2.59892 16.8982 2.59892 16.2765V13.5336C2.59892 13.235 2.47981 12.9478 2.26932 12.7373L0.3292 10.7972C-0.109733 10.3582 -0.109733 9.64518 0.3292 9.20462L2.26932 7.2645C2.47981 7.05401 2.59892 6.76683 2.59892 6.46822V3.7253C2.59892 3.10361 3.10312 2.59941 3.72481 2.59941H6.46773C6.76634 2.59941 7.05352 2.4803 7.26401 2.2698L9.20413 0.329688C9.64306 -0.109245 10.3561 -0.109245 10.7967 0.329688Z" fill="#0088CC"/>
<g clip-path="url(#clip0_2867_20637)">
<path d="M13.7657 8.45609C13.7657 8.45609 9.85786 12.3635 9.54534 12.6761C9.23282 12.9887 8.72586 12.9887 8.41305 12.6761L6.23448 10.4974C5.92184 10.1848 5.92184 9.6778 6.23448 9.36517C6.54718 9.05247 7.0541 9.05247 7.36666 9.36505L8.97936 10.9778L12.6333 7.32379C12.946 7.01109 13.453 7.01133 13.7656 7.32379C14.0781 7.63643 14.0781 8.14327 13.7657 8.45609Z" fill="#F7F9FB"/>
</g>
<defs>
<clipPath id="clip0_2867_20637">
<rect width="8" height="8" fill="white" transform="translate(6 6)"/>
</clipPath>
</defs>
</svg>
