<svg width="21" height="22" viewBox="0 0 21 22" fill="none" xmlns="http://www.w3.org/2000/svg">
<path d="M2.45036 4.00014C3.03022 4.00014 3.50032 3.53003 3.50032 2.95017C3.50032 2.37031 3.03022 1.90021 2.45036 1.90021C1.8705 1.90021 1.40039 2.37031 1.40039 2.95017C1.40039 3.53003 1.8705 4.00014 2.45036 4.00014ZM2.45036 2.60016C2.64366 2.60016 2.80033 2.75687 2.80033 2.95013C2.80033 3.14339 2.64362 3.30011 2.45036 3.30011C2.2571 3.30011 2.10038 3.14343 2.10038 2.95017C2.10038 2.75691 2.2571 2.60016 2.45036 2.60016Z" fill="black"/>
<path d="M5.25016 4.00014C5.83006 4.00014 6.30013 3.53003 6.30013 2.95017C6.30013 2.37031 5.83002 1.90021 5.25016 1.90021C4.6703 1.90021 4.2002 2.37031 4.2002 2.95017C4.2002 3.53003 4.6703 4.00014 5.25016 4.00014ZM5.25016 2.60016C5.44346 2.60016 5.60014 2.75687 5.60014 2.95013C5.60014 3.14339 5.44342 3.30011 5.25016 3.30011C5.05686 3.30011 4.90019 3.14339 4.90019 2.95013C4.90019 2.75687 5.05686 2.60016 5.25016 2.60016Z" fill="black"/>
<path d="M8.04948 4.00014C8.62934 4.00014 9.09944 3.53003 9.09944 2.95017C9.09944 2.37031 8.62934 1.90021 8.04948 1.90021C7.46962 1.90021 6.99951 2.37031 6.99951 2.95017C6.99951 3.53003 7.46958 4.00014 8.04948 4.00014ZM8.04948 2.60016C8.24278 2.60016 8.39945 2.75687 8.39945 2.95013C8.39945 3.14339 8.24274 3.30011 8.04948 3.30011C7.85622 3.30011 7.6995 3.14339 7.6995 2.95013C7.6995 2.75687 7.85618 2.60016 8.04948 2.60016Z" fill="black"/>
<path d="M12.9494 4.00014H15.7493C16.3292 4.00014 16.7993 3.53003 16.7993 2.95017C16.7993 2.37031 16.3292 1.90021 15.7493 1.90021H12.9494C12.3695 1.90021 11.8994 2.37031 11.8994 2.95017C11.8994 3.53003 12.3695 4.00014 12.9494 4.00014ZM12.9494 2.60016H15.7493C15.9426 2.60016 16.0993 2.75687 16.0993 2.95013C16.0993 3.14339 15.9426 3.30011 15.7493 3.30011H12.9494C12.7561 3.30011 12.5994 3.14339 12.5994 2.95013C12.5994 2.75687 12.7561 2.60016 12.9494 2.60016Z" fill="black"/>
<path d="M3.85046 6.09998C3.65716 6.09998 3.50049 6.25669 3.50049 6.44995V17.6496C3.50049 17.8429 3.6572 17.9996 3.85046 17.9996C4.04376 17.9996 4.20044 17.8429 4.20044 17.6496V6.44995C4.20044 6.25665 4.04372 6.09998 3.85046 6.09998Z" fill="black"/>
<path d="M2.45031 6.45004H1.75037C1.55707 6.45004 1.40039 6.60676 1.40039 6.80002C1.40039 6.99328 1.55711 7.14999 1.75037 7.14999H2.45036C2.64366 7.14999 2.80033 6.99332 2.80033 6.80002C2.80033 6.60672 2.64362 6.45004 2.45031 6.45004Z" fill="black"/>
<path d="M5.24988 7.14999H9.09976C9.29306 7.14999 9.44974 6.99332 9.44974 6.80002C9.44974 6.60672 9.29302 6.45004 9.09976 6.45004H5.24988C5.05658 6.45004 4.8999 6.60676 4.8999 6.80002C4.8999 6.99328 5.05658 7.14999 5.24988 7.14999Z" fill="black"/>
<path d="M2.45031 8.19998H1.75037C1.55707 8.19998 1.40039 8.3567 1.40039 8.54996C1.40039 8.74326 1.55711 8.89993 1.75037 8.89993H2.45036C2.64366 8.89993 2.80033 8.74322 2.80033 8.54996C2.80033 8.35666 2.64362 8.19998 2.45031 8.19998Z" fill="black"/>
<path d="M5.24988 8.89993H10.8497C11.043 8.89993 11.1997 8.74322 11.1997 8.54996C11.1997 8.35666 11.043 8.19998 10.8497 8.19998H5.24988C5.05658 8.19998 4.8999 8.3567 4.8999 8.54996C4.8999 8.74326 5.05658 8.89993 5.24988 8.89993Z" fill="black"/>
<path d="M2.45031 9.94992H1.75037C1.55707 9.94992 1.40039 10.1066 1.40039 10.2999C1.40039 10.4932 1.55711 10.6499 1.75037 10.6499H2.45036C2.64366 10.6499 2.80033 10.4932 2.80033 10.2999C2.80033 10.1066 2.64362 9.94992 2.45031 9.94992Z" fill="black"/>
<path d="M5.24988 10.6499H7.34981C7.54311 10.6499 7.69978 10.4932 7.69978 10.2999C7.69978 10.1066 7.54311 9.94992 7.34981 9.94992H5.24988C5.05658 9.94992 4.8999 10.1066 4.8999 10.2999C4.8999 10.4932 5.05658 10.6499 5.24988 10.6499Z" fill="black"/>
<path d="M2.45031 11.6998H1.75037C1.55707 11.6998 1.40039 11.8565 1.40039 12.0498C1.40039 12.2431 1.55711 12.3998 1.75037 12.3998H2.45036C2.64366 12.3998 2.80033 12.2431 2.80033 12.0498C2.80033 11.8565 2.64362 11.6998 2.45031 11.6998Z" fill="black"/>
<path d="M5.24988 12.3998H9.09976C9.29306 12.3998 9.44974 12.2431 9.44974 12.0498C9.44974 11.8565 9.29302 11.6998 9.09976 11.6998H5.24988C5.05658 11.6998 4.8999 11.8565 4.8999 12.0498C4.8999 12.2431 5.05658 12.3998 5.24988 12.3998Z" fill="black"/>
<path d="M2.45031 13.4498H1.75037C1.55707 13.4498 1.40039 13.6065 1.40039 13.7997C1.40039 13.993 1.55711 14.1497 1.75037 14.1497H2.45036C2.64366 14.1497 2.80033 13.993 2.80033 13.7997C2.80033 13.6064 2.64362 13.4498 2.45031 13.4498Z" fill="black"/>
<path d="M5.24988 14.1497H10.8497C11.043 14.1497 11.1997 13.993 11.1997 13.7997C11.1997 13.6064 11.043 13.4498 10.8497 13.4498H5.24988C5.05658 13.4498 4.8999 13.6065 4.8999 13.7997C4.8999 13.993 5.05658 14.1497 5.24988 14.1497Z" fill="black"/>
<path d="M2.45031 15.1997H1.75037C1.55707 15.1997 1.40039 15.3564 1.40039 15.5497C1.40039 15.743 1.55711 15.8997 1.75037 15.8997H2.45036C2.64366 15.8997 2.80033 15.743 2.80033 15.5497C2.80033 15.3564 2.64362 15.1997 2.45031 15.1997Z" fill="black"/>
<path d="M2.45031 16.9496H1.75037C1.55707 16.9496 1.40039 17.1063 1.40039 17.2996C1.40039 17.4929 1.55711 17.6496 1.75037 17.6496H2.45036C2.64366 17.6496 2.80033 17.4928 2.80033 17.2996C2.80033 17.1063 2.64362 16.9496 2.45031 16.9496Z" fill="black"/>
<path d="M7.34981 16.9496H5.24988C5.05658 16.9496 4.8999 17.1063 4.8999 17.2996C4.8999 17.4929 5.05662 17.6496 5.24988 17.6496H7.34981C7.54311 17.6496 7.69978 17.4928 7.69978 17.2996C7.69978 17.1063 7.54311 16.9496 7.34981 16.9496Z" fill="black"/>
<path d="M12.2494 8.89993H13.2994C13.4927 8.89993 13.6493 8.74322 13.6493 8.54996C13.6493 8.35666 13.4927 8.19998 13.2994 8.19998H12.2494C12.0561 8.19998 11.8994 8.3567 11.8994 8.54996C11.8994 8.74326 12.0561 8.89993 12.2494 8.89993Z" fill="black"/>
<path d="M18.1994 15.3164V2.60027C18.1982 1.441 17.2587 0.501484 16.0995 0.500336H2.09993C0.940662 0.501484 0.0011484 1.441 0 2.60027V17.2998C0.0011484 18.459 0.940662 19.3986 2.09993 19.3997H8.84419L8.5397 19.9247C8.3521 20.2496 8.35214 20.65 8.53987 20.9749C8.72759 21.2999 9.07445 21.4999 9.44969 21.4996H19.9493C20.3246 21.4999 20.6714 21.2999 20.8592 20.9749C21.0469 20.65 21.047 20.2496 20.8593 19.9247L18.1994 15.3164ZM2.09993 1.20033H16.0995C16.8726 1.20033 17.4994 1.82711 17.4994 2.60027V4.7002H0.699949V2.60027C0.69999 1.82711 1.32677 1.20033 2.09993 1.20033ZM2.09993 18.6998C1.32677 18.6998 0.69999 18.073 0.69999 17.2998V5.40019H17.4994V14.1026L15.6095 10.825C15.4221 10.4994 15.0751 10.2988 14.6995 10.2988C14.3239 10.2988 13.9769 10.4995 13.7895 10.825L13.2855 11.6999H10.4997C10.3064 11.6999 10.1497 11.8566 10.1497 12.0499C10.1497 12.2432 10.3064 12.3999 10.4997 12.3999H12.8817L11.2668 15.1998H5.24983C5.05653 15.1998 4.89985 15.3565 4.89985 15.5498C4.89985 15.7431 5.05657 15.8998 5.24983 15.8998H10.863L10.2575 16.9497H8.74969C8.55639 16.9497 8.39972 17.1064 8.39972 17.2997C8.39972 17.493 8.55639 17.6497 8.74969 17.6497H9.85355L9.24773 18.6996H2.09993V18.6998ZM20.2514 20.6247C20.19 20.7336 20.0743 20.8006 19.9493 20.7997H9.44969C9.32463 20.7997 9.2091 20.733 9.14659 20.6247C9.08408 20.5164 9.08408 20.383 9.14659 20.2747L14.3964 11.175C14.4589 11.0667 14.5745 11 14.6995 11C14.8245 11 14.9401 11.0667 15.0026 11.175L20.2524 20.2747C20.316 20.3828 20.3156 20.517 20.2514 20.6247Z" fill="black"/>
<path d="M14.6996 13.0998C14.5063 13.0998 14.3496 13.2565 14.3496 13.4498V17.9996C14.3496 18.1929 14.5063 18.3496 14.6996 18.3496C14.8929 18.3496 15.0496 18.1929 15.0496 17.9996V13.4498C15.0496 13.2565 14.8929 13.0998 14.6996 13.0998Z" fill="black"/>
<path d="M14.6996 19.7496C14.8929 19.7496 15.0496 19.5929 15.0496 19.3996C15.0496 19.2063 14.8929 19.0496 14.6996 19.0496C14.5063 19.0496 14.3496 19.2063 14.3496 19.3996C14.3496 19.5929 14.5063 19.7496 14.6996 19.7496Z" fill="black"/>
</svg>
