<svg width="23" height="24" viewBox="0 0 23 24" fill="none" xmlns="http://www.w3.org/2000/svg">
<path d="M18.1051 11.6332C17.8592 11.6348 17.6138 11.657 17.3715 11.6996V2.83068C17.3703 1.81834 16.55 0.997999 15.5377 0.996796H2.33384C1.32154 0.997999 0.501203 1.81834 0.5 2.83068V14.5674C0.501203 15.5797 1.32154 16.4001 2.33388 16.4013H5.65353C5.81205 18.2627 7.12753 19.8217 8.93579 20.2909V21.9029C8.93579 22.5105 9.42844 23.0032 10.0361 23.0032C10.6438 23.0032 11.1364 22.5106 11.1364 21.9029V20.289C12.4463 19.9486 13.5277 19.0263 14.0706 17.7865C14.6135 19.0263 15.6949 19.9486 17.0048 20.289V21.9029C17.0048 22.5105 17.4975 23.0032 18.1051 23.0032C18.7128 23.0032 19.2055 22.5106 19.2055 21.9029V20.289C21.3478 19.7335 22.7437 17.6725 22.4646 15.4769C22.1854 13.2813 20.3183 11.6351 18.1051 11.6332ZM1.23352 14.5674V2.83068C1.23352 2.22301 1.72617 1.73036 2.33384 1.73036H15.5377C16.1453 1.73036 16.638 2.22301 16.638 2.83068V11.89C15.4891 12.2986 14.56 13.1637 14.0706 14.2806C13.2682 12.4307 11.3106 11.3635 9.32103 11.6914C7.33148 12.0192 5.81983 13.6582 5.65349 15.6677H2.33384C1.72617 15.6677 1.23352 15.1751 1.23352 14.5674ZM10.4029 21.9029C10.4029 22.1054 10.2386 22.2696 10.0361 22.2696C9.83354 22.2696 9.66935 22.1054 9.66935 21.9029V20.417C9.79078 20.4273 9.91216 20.4357 10.0361 20.4357C10.1601 20.4357 10.2815 20.4273 10.4029 20.417V21.9029ZM10.0361 19.7022C8.01045 19.7022 6.36835 18.0601 6.36835 16.0345C6.36835 14.0089 8.01045 12.3668 10.0361 12.3668C12.0617 12.3668 13.7038 14.0089 13.7038 16.0345C13.7016 18.0592 12.0608 19.7 10.0361 19.7022ZM18.4719 21.9029C18.4719 22.1054 18.3076 22.2696 18.1051 22.2696C17.9026 22.2696 17.7383 22.1054 17.7383 21.9029V20.417C17.8598 20.4273 17.9811 20.4357 18.1051 20.4357C18.2291 20.4357 18.3505 20.4273 18.4719 20.417V21.9029ZM18.1051 19.7022C16.0795 19.7022 14.4374 18.0601 14.4374 16.0345C14.4374 14.0089 16.0795 12.3668 18.1051 12.3668C20.1307 12.3668 21.7728 14.0089 21.7728 16.0345C21.7706 18.0592 20.1298 19.7 18.1051 19.7022Z" fill="black"/>
<path d="M10.9162 17.9418C10.3923 18.3259 9.67971 18.3259 9.15573 17.9418C8.99369 17.8202 8.76378 17.8531 8.64223 18.0151C8.52068 18.1772 8.55352 18.4071 8.7156 18.5286C9.49803 19.1155 10.5739 19.1155 11.3564 18.5286C11.4612 18.45 11.5161 18.3214 11.5004 18.1914C11.4848 18.0613 11.4009 17.9494 11.2804 17.8979C11.1599 17.8464 11.0211 17.8632 10.9162 17.9418Z" fill="black"/>
<path d="M16.7844 17.9417C16.6224 18.0633 16.5895 18.2931 16.7111 18.4552C16.8326 18.6173 17.0625 18.6501 17.2245 18.5286C17.7485 18.1445 18.4611 18.1445 18.9851 18.5286C19.0899 18.6072 19.2287 18.6239 19.3492 18.5725C19.4697 18.521 19.5536 18.4091 19.5693 18.279C19.5849 18.1489 19.53 18.0204 19.4252 17.9418C18.6391 17.3659 17.5705 17.3659 16.7844 17.9417Z" fill="black"/>
<path d="M9.66943 16.0345C9.66943 15.5895 9.40135 15.1882 8.99019 15.018C8.57904 14.8477 8.10577 14.9418 7.79106 15.2565C7.47635 15.5712 7.38222 16.0444 7.55256 16.4556C7.72285 16.8667 8.12408 17.1348 8.56911 17.1348C9.17678 17.1348 9.66943 16.6422 9.66943 16.0345ZM8.56911 16.4013C8.36654 16.4013 8.20235 16.237 8.20235 16.0345C8.20235 15.8319 8.36658 15.6677 8.56911 15.6677C8.77164 15.6677 8.93587 15.832 8.93587 16.0345C8.93587 16.237 8.77168 16.4013 8.56911 16.4013Z" fill="black"/>
<path d="M17.7382 16.0345C17.7382 15.4268 17.2456 14.9342 16.6379 14.9342C16.0302 14.9342 15.5376 15.4268 15.5376 16.0345C15.5376 16.6422 16.0302 17.1348 16.6379 17.1348C17.2456 17.1348 17.7382 16.6422 17.7382 16.0345ZM16.6379 16.4013C16.4353 16.4013 16.2712 16.237 16.2712 16.0345C16.2712 15.8319 16.4353 15.6677 16.6379 15.6677C16.8405 15.6677 17.0047 15.832 17.0047 16.0345C17.0047 16.237 16.8405 16.4013 16.6379 16.4013Z" fill="black"/>
<path d="M11.5032 14.9342C10.8955 14.9342 10.4028 15.4268 10.4028 16.0345C10.4028 16.6422 10.8955 17.1348 11.5032 17.1348C12.1108 17.1348 12.6035 16.6422 12.6035 16.0345C12.6035 15.4268 12.1108 14.9342 11.5032 14.9342ZM11.5032 16.4013C11.3006 16.4013 11.1364 16.237 11.1364 16.0345C11.1364 15.8319 11.3006 15.6677 11.5032 15.6677C11.7057 15.6677 11.8699 15.832 11.8699 16.0345C11.8699 16.237 11.7057 16.4013 11.5032 16.4013Z" fill="black"/>
<path d="M19.5725 14.9342C18.9648 14.9342 18.4722 15.4268 18.4722 16.0345C18.4722 16.6422 18.9648 17.1348 19.5725 17.1348C20.1802 17.1348 20.6728 16.6422 20.6728 16.0345C20.6728 15.4268 20.1802 14.9342 19.5725 14.9342ZM19.5725 16.4013C19.3699 16.4013 19.2057 16.237 19.2057 16.0345C19.2057 15.8319 19.37 15.6677 19.5725 15.6677C19.7751 15.6677 19.9392 15.832 19.9392 16.0345C19.9392 16.237 19.7751 16.4013 19.5725 16.4013Z" fill="black"/>
<path d="M3.0676 2.46384C2.45994 2.46384 1.96729 2.95649 1.96729 3.56416V5.03123C1.96729 5.6389 2.45994 6.13155 3.0676 6.13155C3.67527 6.13155 4.16792 5.6389 4.16792 5.03123V3.56416C4.16792 2.95649 3.67527 2.46384 3.0676 2.46384ZM3.43436 5.03128C3.43436 5.23385 3.27013 5.39803 3.0676 5.39803C2.86508 5.39803 2.70085 5.2338 2.70085 5.03128V3.56416C2.70085 3.36159 2.86508 3.1974 3.0676 3.1974C3.27013 3.1974 3.43436 3.36163 3.43436 3.56416V5.03128Z" fill="black"/>
<path d="M3.0676 6.86517C2.45994 6.86517 1.96729 7.35782 1.96729 7.96549V9.43257C1.96729 10.0402 2.45994 10.5329 3.0676 10.5329C3.67527 10.5329 4.16792 10.0402 4.16792 9.43257V7.96549C4.16792 7.35782 3.67527 6.86517 3.0676 6.86517ZM3.43436 9.43261C3.43436 9.63518 3.27013 9.79937 3.0676 9.79937C2.86508 9.79937 2.70085 9.63514 2.70085 9.43261V7.96554C2.70085 7.76296 2.86508 7.59878 3.0676 7.59878C3.27013 7.59878 3.43436 7.76301 3.43436 7.96554V9.43261Z" fill="black"/>
<path d="M6.00169 10.5329C6.60935 10.5329 7.10201 10.0402 7.10201 9.43257V7.96549C7.10201 7.35778 6.60935 6.86517 6.00169 6.86517C5.39402 6.86517 4.90137 7.35782 4.90137 7.96549V9.43257C4.90137 10.0402 5.39397 10.5329 6.00169 10.5329ZM5.63488 7.96545C5.63488 7.76288 5.79912 7.59869 6.00164 7.59869C6.20421 7.59869 6.3684 7.76292 6.3684 7.96545V9.43253C6.3684 9.6351 6.20417 9.79929 6.00164 9.79929C5.79907 9.79929 5.63488 9.63505 5.63488 9.43253V7.96545Z" fill="black"/>
<path d="M8.93626 6.1316C9.54393 6.1316 10.0366 5.63895 10.0366 5.03128V3.56416C10.0366 2.95649 9.54393 2.46384 8.93626 2.46384C8.32855 2.46384 7.83594 2.95649 7.83594 3.56416V5.03123C7.83594 5.63895 8.32859 6.1316 8.93626 6.1316ZM8.5695 3.56416C8.5695 3.36159 8.73373 3.1974 8.93626 3.1974C9.13883 3.1974 9.30301 3.36163 9.30301 3.56416V5.03123C9.30301 5.2338 9.13878 5.39799 8.93626 5.39799C8.73369 5.39799 8.5695 5.23376 8.5695 5.03123V3.56416Z" fill="black"/>
<path d="M11.8703 10.5329C12.478 10.5329 12.9707 10.0402 12.9707 9.43257V7.96549C12.9707 7.35778 12.478 6.86517 11.8703 6.86517C11.2626 6.86517 10.77 7.35782 10.77 7.96549V9.43257C10.77 10.0402 11.2626 10.5329 11.8703 10.5329ZM11.5036 7.96545C11.5036 7.76288 11.6678 7.59869 11.8703 7.59869C12.0729 7.59869 12.2371 7.76292 12.2371 7.96545V9.43253C12.2371 9.6351 12.0729 9.79929 11.8703 9.79929C11.6678 9.79929 11.5036 9.63505 11.5036 9.43253V7.96545Z" fill="black"/>
<path d="M14.8044 6.1316C15.4121 6.1316 15.9047 5.63895 15.9047 5.03128V3.56416C15.9047 2.95649 15.4121 2.46384 14.8044 2.46384C14.1968 2.46384 13.7041 2.95649 13.7041 3.56416V5.03123C13.7041 5.63895 14.1967 6.1316 14.8044 6.1316ZM14.4376 3.56416C14.4376 3.36159 14.6018 3.1974 14.8044 3.1974C15.0069 3.1974 15.1711 3.36163 15.1711 3.56416V5.03123C15.1711 5.2338 15.0069 5.39799 14.8044 5.39799C14.6018 5.39799 14.4376 5.23376 14.4376 5.03123V3.56416Z" fill="black"/>
<path d="M14.8044 10.5329C15.4121 10.5329 15.9047 10.0402 15.9047 9.43257V7.96549C15.9047 7.35778 15.4121 6.86517 14.8044 6.86517C14.1968 6.86517 13.7041 7.35782 13.7041 7.96549V9.43257C13.7041 10.0402 14.1967 10.5329 14.8044 10.5329ZM14.4376 7.96545C14.4376 7.76288 14.6018 7.59869 14.8044 7.59869C15.0069 7.59869 15.1711 7.76292 15.1711 7.96545V9.43253C15.1711 9.6351 15.0069 9.79929 14.8044 9.79929C14.6018 9.79929 14.4376 9.63505 14.4376 9.43253V7.96545Z" fill="black"/>
<path d="M5.52734 4.19025L6.00159 3.71599V5.76478C6.00159 5.96735 6.16582 6.13154 6.36835 6.13154C6.57092 6.13154 6.73511 5.96731 6.73511 5.76478V2.83062C6.73507 2.6823 6.64571 2.54858 6.50868 2.49185C6.37166 2.43511 6.21392 2.46644 6.10905 2.57132L5.00873 3.67164C4.86973 3.81554 4.8717 4.04433 5.0132 4.18578C5.15465 4.32723 5.38344 4.32925 5.52734 4.19025Z" fill="black"/>
<path d="M3.0676 11.2664C2.45994 11.2664 1.96729 11.7591 1.96729 12.3667V13.8338C1.96729 14.4415 2.45994 14.9341 3.0676 14.9341C3.67527 14.9341 4.16792 14.4415 4.16792 13.8338V12.3667C4.16792 11.7591 3.67527 11.2664 3.0676 11.2664ZM3.43436 13.8339C3.43436 14.0364 3.27013 14.2006 3.0676 14.2006C2.86508 14.2006 2.70085 14.0364 2.70085 13.8339V12.3668C2.70085 12.1642 2.86508 12 3.0676 12C3.27013 12 3.43436 12.1643 3.43436 12.3668V13.8339Z" fill="black"/>
<path d="M8.46142 8.59154L8.93567 8.11728V10.1661C8.93567 10.3686 9.09986 10.5328 9.30243 10.5328C9.505 10.5328 9.66919 10.3686 9.66919 10.1661V7.23187C9.66915 7.08354 9.57979 6.94983 9.44277 6.89309C9.30574 6.83636 9.148 6.86769 9.04313 6.97256L7.94281 8.07288C7.80381 8.21678 7.80578 8.44557 7.94728 8.58702C8.08873 8.72852 8.31748 8.73054 8.46142 8.59154Z" fill="black"/>
<path d="M11.3955 4.19025L11.8698 3.71599V5.76478C11.8698 5.96735 12.0339 6.13154 12.2365 6.13154C12.4391 6.13154 12.6033 5.96731 12.6033 5.76478V2.83062C12.6032 2.6823 12.5139 2.54858 12.3768 2.49185C12.2398 2.43511 12.0821 2.46644 11.9772 2.57132L10.8769 3.67164C10.7379 3.81554 10.7399 4.04433 10.8814 4.18578C11.0229 4.32723 11.2516 4.32925 11.3955 4.19025Z" fill="black"/>
</svg>
