<svg width="23" height="25" viewBox="0 0 23 25" fill="none" xmlns="http://www.w3.org/2000/svg">
<path d="M1.53887 24.979H21.0312C21.881 24.979 22.57 24.4199 22.57 23.73V3.74685C22.57 3.63645 22.5159 3.53058 22.4198 3.45252L18.316 0.121968C18.2199 0.0439084 18.0894 0 17.9534 0H1.53887C0.689003 0 0 0.559198 0 1.24895V23.73C0 24.4199 0.688943 24.979 1.53887 24.979ZM18.4664 1.42131L20.8188 3.33055H18.9793C18.696 3.33055 18.4664 3.14413 18.4664 2.91425V1.42131ZM1.02587 1.24895C1.02587 1.01902 1.25556 0.83265 1.53881 0.83265H17.4405V2.91425C17.4405 3.604 18.1295 4.1632 18.9793 4.1632H21.5441V23.73C21.5441 23.96 21.3145 24.1464 21.0312 24.1464H1.53887C1.25556 24.1464 1.02593 23.96 1.02593 23.73V1.24895H1.02587Z" fill="#0088CC"/>
<path d="M3.74177 5.70659C3.94303 5.86437 4.26301 5.86212 4.46083 5.70152C4.65866 5.54091 4.66149 5.28126 4.46708 5.11793L3.29087 4.16331L4.46708 3.20869C4.60041 3.10414 4.65391 2.94939 4.60697 2.80381C4.56002 2.65823 4.41996 2.5446 4.24064 2.5065C4.06127 2.4684 3.87059 2.51182 3.74177 2.62003L2.20291 3.86898C2.00268 4.03153 2.00268 4.29508 2.20291 4.45764L3.74177 5.70659Z" fill="#0088CC"/>
<path d="M9.89627 5.70637C10.0966 5.86888 10.4213 5.86888 10.6216 5.70637L12.1604 4.45742C12.3607 4.29486 12.3607 4.03131 12.1604 3.86875L10.6216 2.6198C10.4203 2.46203 10.1003 2.46427 9.90252 2.62488C9.70463 2.78548 9.70187 3.04513 9.89627 3.20847L11.0725 4.16309L9.89627 5.1177C9.69604 5.28031 9.69604 5.54381 9.89627 5.70637Z" fill="#0088CC"/>
<path d="M6.15516 5.82843C6.32684 5.82858 6.48716 5.75906 6.58243 5.64319L8.63423 3.14529C8.79149 2.95399 8.72783 2.69547 8.49213 2.56784C8.25643 2.44022 7.9379 2.49188 7.78064 2.68318L5.72884 5.18108C5.62389 5.30875 5.61397 5.47297 5.70312 5.60835C5.79232 5.74369 5.96599 5.82829 6.15516 5.82843Z" fill="#0088CC"/>
<path d="M2.56567 7.90999H3.5916C3.87491 7.90999 4.10454 7.72358 4.10454 7.49369C4.10454 7.26381 3.87485 7.07739 3.5916 7.07739H2.56567C2.28236 7.07739 2.05273 7.26376 2.05273 7.49369C2.05273 7.72363 2.28242 7.90999 2.56567 7.90999Z" fill="#0088CC"/>
<path d="M2.56567 9.99178H3.5916C3.87491 9.99178 4.10454 9.80537 4.10454 9.57548C4.10454 9.3456 3.87485 9.15918 3.5916 9.15918H2.56567C2.28236 9.15918 2.05273 9.3456 2.05273 9.57548C2.05273 9.80537 2.28242 9.99178 2.56567 9.99178Z" fill="#0088CC"/>
<path d="M2.56567 12.0731H3.5916C3.87491 12.0731 4.10454 11.8867 4.10454 11.6568C4.10454 11.4268 3.87485 11.2405 3.5916 11.2405H2.56567C2.28236 11.2405 2.05273 11.4269 2.05273 11.6568C2.05273 11.8867 2.28242 12.0731 2.56567 12.0731Z" fill="#0088CC"/>
<path d="M2.56567 14.1546H3.5916C3.87491 14.1546 4.10454 13.9682 4.10454 13.7383C4.10454 13.5084 3.87485 13.322 3.5916 13.322H2.56567C2.28236 13.322 2.05273 13.5084 2.05273 13.7383C2.05273 13.9683 2.28242 14.1546 2.56567 14.1546Z" fill="#0088CC"/>
<path d="M2.56567 16.2364H3.5916C3.87491 16.2364 4.10454 16.05 4.10454 15.8201C4.10454 15.5902 3.87485 15.4038 3.5916 15.4038H2.56567C2.28236 15.4038 2.05273 15.5902 2.05273 15.8201C2.05273 16.05 2.28242 16.2364 2.56567 16.2364Z" fill="#0088CC"/>
<path d="M2.56567 18.318H3.5916C3.87491 18.318 4.10454 18.1316 4.10454 17.9017C4.10454 17.6718 3.87491 17.4854 3.5916 17.4854H2.56567C2.28236 17.4854 2.05273 17.6717 2.05273 17.9017C2.05273 18.1316 2.28242 18.318 2.56567 18.318Z" fill="#0088CC"/>
<path d="M2.56567 20.3995H3.5916C3.87491 20.3995 4.10454 20.2131 4.10454 19.9832C4.10454 19.7533 3.87485 19.5669 3.5916 19.5669H2.56567C2.28236 19.5669 2.05273 19.7533 2.05273 19.9832C2.05273 20.2131 2.28242 20.3995 2.56567 20.3995Z" fill="#0088CC"/>
<path d="M2.56567 22.481H3.5916C3.87491 22.481 4.10454 22.2947 4.10454 22.0647C4.10454 21.8348 3.87485 21.6484 3.5916 21.6484H2.56567C2.28236 21.6484 2.05273 21.8348 2.05273 22.0647C2.05273 22.2947 2.28242 22.481 2.56567 22.481Z" fill="#0088CC"/>
<path d="M5.64282 7.90999H12.8242C13.1075 7.90999 13.3371 7.72358 13.3371 7.49369C13.3371 7.26381 13.1075 7.07739 12.8242 7.07739H5.64282C5.35951 7.07739 5.12988 7.26376 5.12988 7.49369C5.12988 7.72363 5.35957 7.90999 5.64282 7.90999Z" fill="#0088CC"/>
<path d="M5.64282 9.99178H11.2853C11.5687 9.99178 11.7983 9.80537 11.7983 9.57548C11.7983 9.3456 11.5686 9.15918 11.2853 9.15918H5.64282C5.35951 9.15918 5.12988 9.3456 5.12988 9.57548C5.12988 9.80537 5.35957 9.99178 5.64282 9.99178Z" fill="#0088CC"/>
<path d="M5.64282 12.0731H15.3889C15.6723 12.0731 15.9019 11.8867 15.9019 11.6568C15.9019 11.4268 15.6723 11.2405 15.3889 11.2405H5.64282C5.35951 11.2405 5.12988 11.4269 5.12988 11.6568C5.12988 11.8867 5.35957 12.0731 5.64282 12.0731Z" fill="#0088CC"/>
<path d="M12.8223 9.57548C12.8223 9.80541 13.052 9.99178 13.3352 9.99178H18.9777C19.261 9.99178 19.4907 9.80537 19.4907 9.57548C19.4907 9.3456 19.261 9.15918 18.9777 9.15918H13.3352C13.052 9.15913 12.8223 9.34555 12.8223 9.57548Z" fill="#0088CC"/>
<path d="M16.9277 11.6568C16.9277 11.8867 17.1574 12.0731 17.4407 12.0731H20.0055C20.2888 12.0731 20.5184 11.8867 20.5184 11.6568C20.5184 11.4268 20.2887 11.2405 20.0055 11.2405H17.4407C17.1574 11.2405 16.9277 11.4269 16.9277 11.6568Z" fill="#0088CC"/>
<path d="M5.64282 14.1546H9.23348C9.51679 14.1546 9.74642 13.9682 9.74642 13.7383C9.74642 13.5084 9.51673 13.322 9.23348 13.322H5.64282C5.35951 13.322 5.12988 13.5084 5.12988 13.7383C5.12988 13.9683 5.35957 14.1546 5.64282 14.1546Z" fill="#0088CC"/>
<path d="M5.64282 16.2364H11.7983C12.0816 16.2364 12.3112 16.05 12.3112 15.8201C12.3112 15.5902 12.0816 15.4038 11.7983 15.4038H5.64282C5.35951 15.4038 5.12988 15.5902 5.12988 15.8201C5.12988 16.05 5.35957 16.2364 5.64282 16.2364Z" fill="#0088CC"/>
<path d="M5.64282 18.318H15.3889C15.6723 18.318 15.9019 18.1316 15.9019 17.9017C15.9019 17.6717 15.6723 17.4854 15.3889 17.4854H5.64282C5.35951 17.4854 5.12988 17.6717 5.12988 17.9017C5.12988 18.1316 5.35957 18.318 5.64282 18.318Z" fill="#0088CC"/>
<path d="M5.64282 20.3995H8.20761C8.49092 20.3995 8.72055 20.2131 8.72055 19.9832C8.72055 19.7533 8.49086 19.5669 8.20761 19.5669H5.64282C5.35951 19.5669 5.12988 19.7533 5.12988 19.9832C5.12988 20.2131 5.35957 20.3995 5.64282 20.3995Z" fill="#0088CC"/>
<path d="M5.64282 22.481H10.7723C11.0557 22.481 11.2853 22.2947 11.2853 22.0647C11.2853 21.8348 11.0557 21.6484 10.7723 21.6484H5.64282C5.35951 21.6484 5.12988 21.8348 5.12988 22.0647C5.12988 22.2947 5.35957 22.481 5.64282 22.481Z" fill="#0088CC"/>
<path d="M16.4149 13.322H11.2854C11.0021 13.322 10.7725 13.5084 10.7725 13.7383C10.7725 13.9683 11.0021 14.1546 11.2854 14.1546H16.4149C16.6982 14.1546 16.9279 13.9682 16.9279 13.7383C16.9279 13.5084 16.6982 13.322 16.4149 13.322Z" fill="#0088CC"/>
<path d="M20.0059 13.322H18.467C18.1837 13.322 17.9541 13.5084 17.9541 13.7383C17.9541 13.9683 18.1838 14.1546 18.467 14.1546H20.0059C20.2892 14.1546 20.5188 13.9682 20.5188 13.7383C20.5188 13.5084 20.2892 13.322 20.0059 13.322Z" fill="#0088CC"/>
<path d="M18.9795 17.4854H17.4407C17.1574 17.4854 16.9277 17.6717 16.9277 17.9017C16.9277 18.1316 17.1574 18.318 17.4407 18.318H18.9795C19.2628 18.318 19.4925 18.1316 19.4925 17.9017C19.4925 17.6717 19.2628 17.4854 18.9795 17.4854Z" fill="#0088CC"/>
<path d="M17.9534 19.5669H10.259C9.97572 19.5669 9.74609 19.7533 9.74609 19.9832C9.74609 20.2131 9.97578 20.3995 10.259 20.3995H17.9534C18.2367 20.3995 18.4663 20.2131 18.4663 19.9832C18.4664 19.7533 18.2367 19.5669 17.9534 19.5669Z" fill="#0088CC"/>
</svg>
