<svg width="23" height="22" viewBox="0 0 23 22" fill="none" xmlns="http://www.w3.org/2000/svg">
<path d="M12.6005 2.53847H15.5339C15.7364 2.53847 15.9005 2.38061 15.9005 2.18592C15.9005 1.99124 15.7364 1.83337 15.5339 1.83337H12.6005C12.398 1.83337 12.2339 1.99124 12.2339 2.18592C12.2339 2.38061 12.3981 2.53847 12.6005 2.53847Z" fill="black"/>
<path d="M2.33394 2.53847C2.53643 2.53847 2.70059 2.38063 2.70059 2.18592C2.70059 1.99122 2.53643 1.83337 2.33394 1.83337C2.13144 1.83337 1.96729 1.99122 1.96729 2.18592C1.96729 2.38063 2.13144 2.53847 2.33394 2.53847Z" fill="black"/>
<path d="M3.80025 2.53847C4.00274 2.53847 4.1669 2.38063 4.1669 2.18592C4.1669 1.99122 4.00274 1.83337 3.80025 1.83337C3.59775 1.83337 3.43359 1.99122 3.43359 2.18592C3.43359 2.38063 3.59775 2.53847 3.80025 2.53847Z" fill="black"/>
<path d="M5.26704 2.53847C5.46954 2.53847 5.6337 2.38063 5.6337 2.18592C5.6337 1.99122 5.46954 1.83337 5.26704 1.83337C5.06455 1.83337 4.90039 1.99122 4.90039 2.18592C4.90039 2.38063 5.06455 2.53847 5.26704 2.53847Z" fill="black"/>
<path d="M3.4335 5.35901H2.70015C2.49764 5.35901 2.3335 5.51688 2.3335 5.71156C2.3335 5.90628 2.49768 6.06411 2.70015 6.06411H3.4335C3.63601 6.06411 3.80015 5.90624 3.80015 5.71156C3.80015 5.51684 3.63601 5.35901 3.4335 5.35901Z" fill="black"/>
<path d="M4.90034 6.06411H8.93369C9.1362 6.06411 9.30034 5.90624 9.30034 5.71156C9.30034 5.51684 9.13616 5.35901 8.93369 5.35901H4.90034C4.69783 5.35901 4.53369 5.51688 4.53369 5.71156C4.53369 5.90628 4.69787 6.06411 4.90034 6.06411Z" fill="black"/>
<path d="M3.4335 6.76923H2.70015C2.49764 6.76923 2.3335 6.92709 2.3335 7.12178C2.3335 7.3165 2.49768 7.47433 2.70015 7.47433H3.4335C3.63601 7.47433 3.80015 7.31646 3.80015 7.12178C3.80015 6.92709 3.63601 6.76923 3.4335 6.76923Z" fill="black"/>
<path d="M4.90034 7.47439H10.767C10.9695 7.47439 11.1336 7.31652 11.1336 7.12184C11.1336 6.92711 10.9695 6.76929 10.767 6.76929H4.90034C4.69783 6.76929 4.53369 6.92716 4.53369 7.12184C4.53369 7.31652 4.69787 7.47439 4.90034 7.47439Z" fill="black"/>
<path d="M3.4335 8.1795H2.70015C2.49764 8.1795 2.3335 8.33737 2.3335 8.53205C2.3335 8.72674 2.49768 8.8846 2.70015 8.8846H3.4335C3.63601 8.8846 3.80015 8.72674 3.80015 8.53205C3.80015 8.33737 3.63601 8.1795 3.4335 8.1795Z" fill="black"/>
<path d="M4.90034 8.88461H7.10034C7.30286 8.88461 7.467 8.72674 7.467 8.53205C7.467 8.33737 7.30281 8.1795 7.10034 8.1795H4.90034C4.69783 8.1795 4.53369 8.33737 4.53369 8.53205C4.53369 8.72674 4.69787 8.88461 4.90034 8.88461Z" fill="black"/>
<path d="M3.4335 9.58978H2.70015C2.49764 9.58978 2.3335 9.74761 2.3335 9.94233C2.3335 10.1371 2.49768 10.2949 2.70015 10.2949H3.4335C3.63601 10.2949 3.80015 10.137 3.80015 9.94233C3.80015 9.74765 3.63601 9.58978 3.4335 9.58978Z" fill="black"/>
<path d="M4.90034 10.2949H8.93369C9.1362 10.2949 9.30034 10.137 9.30034 9.94233C9.30034 9.74765 9.13616 9.58978 8.93369 9.58978H4.90034C4.69783 9.58978 4.53369 9.74761 4.53369 9.94233C4.53369 10.1371 4.69787 10.2949 4.90034 10.2949Z" fill="black"/>
<path d="M3.4335 11H2.70015C2.49764 11 2.3335 11.1579 2.3335 11.3525C2.3335 11.5472 2.49768 11.7051 2.70015 11.7051H3.4335C3.63601 11.7051 3.80015 11.5473 3.80015 11.3525C3.80015 11.1578 3.63601 11 3.4335 11Z" fill="black"/>
<path d="M4.90034 11.7051H10.767C10.9695 11.7051 11.1336 11.5473 11.1336 11.3526C11.1336 11.1579 10.9696 11 10.767 11H4.90034C4.69783 11 4.53369 11.1579 4.53369 11.3525C4.53369 11.5472 4.69787 11.7051 4.90034 11.7051Z" fill="black"/>
<path d="M3.4335 12.4103H2.70015C2.49764 12.4103 2.3335 12.5681 2.3335 12.7628C2.3335 12.9576 2.49768 13.1154 2.70015 13.1154H3.4335C3.63601 13.1154 3.80015 12.9576 3.80015 12.7628C3.80015 12.5681 3.63601 12.4103 3.4335 12.4103Z" fill="black"/>
<path d="M4.90034 13.1154H13.3337C13.5362 13.1154 13.7003 12.9576 13.7003 12.7628C13.7003 12.5681 13.5362 12.4103 13.3337 12.4103H4.90034C4.69783 12.4103 4.53369 12.5681 4.53369 12.7628C4.53369 12.9576 4.69787 13.1154 4.90034 13.1154Z" fill="black"/>
<path d="M12.2338 7.47439H13.3338C13.5364 7.47439 13.7005 7.31652 13.7005 7.12184C13.7005 6.92711 13.5364 6.76929 13.3338 6.76929H12.2338C12.0313 6.76929 11.8672 6.92716 11.8672 7.12184C11.8672 7.31652 12.0313 7.47439 12.2338 7.47439Z" fill="black"/>
<path d="M13.3337 9.58978H10.4003C10.1978 9.58978 10.0337 9.74761 10.0337 9.94233C10.0337 10.1371 10.1978 10.2949 10.4003 10.2949H13.3337C13.5362 10.2949 13.7003 10.137 13.7003 9.94233C13.7003 9.74765 13.5362 9.58978 13.3337 9.58978Z" fill="black"/>
<path d="M3.4335 13.8206H2.70015C2.49764 13.8206 2.3335 13.9784 2.3335 14.1731C2.3335 14.3678 2.49768 14.5257 2.70015 14.5257H3.4335C3.63601 14.5257 3.80015 14.3678 3.80015 14.1731C3.80015 13.9784 3.63601 13.8206 3.4335 13.8206Z" fill="black"/>
<path d="M4.90034 14.5257H8.93369C9.1362 14.5257 9.30034 14.3678 9.30034 14.1731C9.30034 13.9784 9.13616 13.8206 8.93369 13.8206H4.90034C4.69783 13.8206 4.53369 13.9784 4.53369 14.1731C4.53369 14.3678 4.69787 14.5257 4.90034 14.5257Z" fill="black"/>
<path d="M3.4335 15.2308H2.70015C2.49764 15.2308 2.3335 15.3886 2.3335 15.5833C2.3335 15.778 2.49768 15.9359 2.70015 15.9359H3.4335C3.63601 15.9359 3.80015 15.778 3.80015 15.5833C3.80015 15.3886 3.63601 15.2308 3.4335 15.2308Z" fill="black"/>
<path d="M10.4003 15.9359C10.6029 15.9359 10.767 15.7781 10.767 15.5834C10.767 15.3887 10.6028 15.2308 10.4003 15.2308H4.90034C4.69783 15.2308 4.53369 15.3887 4.53369 15.5834C4.53369 15.7781 4.69787 15.9359 4.90034 15.9359H10.4003Z" fill="black"/>
<path d="M11.867 13.8206H10.4003C10.1978 13.8206 10.0337 13.9784 10.0337 14.1731C10.0337 14.3678 10.1978 14.5257 10.4003 14.5257H11.867C12.0695 14.5257 12.2336 14.3678 12.2336 14.1731C12.2336 13.9784 12.0695 13.8206 11.867 13.8206Z" fill="black"/>
<path d="M20.4516 9.21818C19.9888 8.78932 19.2562 8.78932 18.7935 9.21818L17.3671 10.5875V1.83334C17.3672 1.05449 16.7105 0.423096 15.9005 0.423096H1.96718C1.15714 0.423096 0.500488 1.05449 0.500488 1.83334V16.641C0.500488 17.4199 1.15714 18.0513 1.96714 18.0513H9.72949C9.70431 18.1057 9.6848 18.1624 9.67118 18.2205L9.31733 20.2654C9.26057 20.5916 9.35583 20.9252 9.57785 21.1778C9.79987 21.4304 10.1262 21.5764 10.4701 21.5769C10.535 21.5769 10.5998 21.5716 10.6638 21.561L12.7948 21.2198C12.9821 21.1875 13.1552 21.1025 13.292 20.9754L22.1544 12.4497C22.3757 12.2393 22.5002 11.9524 22.5002 11.6531C22.5002 11.3538 22.3757 11.067 22.1544 10.8565L20.4516 9.21818ZM10.7034 17.9889L16.7805 12.1504L17.6839 13.0191L11.6105 18.859L10.7034 17.9889ZM17.2971 11.6519L17.9172 11.0568L20.2415 13.2917L19.6226 13.8872L17.2971 11.6519ZM1.96718 1.12824H15.9005C16.3056 1.12824 16.6339 1.44393 16.6339 1.83338V3.24362H1.23384V1.83334C1.23384 1.44393 1.56216 1.12824 1.96718 1.12824ZM1.23384 16.641V3.94872H16.6338V11.2923L10.3349 17.3462H1.96718C1.56216 17.3462 1.23384 17.0305 1.23384 16.641ZM10.542 20.8658C10.4031 20.8884 10.2614 20.8446 10.1621 20.7484C10.0611 20.653 10.0156 20.5158 10.0404 20.3817L10.3422 18.6383L12.3566 20.5753L10.542 20.8658ZM13.0321 20.2281L12.1271 19.3576L18.2006 13.5177L19.1045 14.3868L13.0321 20.2281ZM21.6377 11.9488L20.761 12.7921L18.436 10.5565L19.316 9.71244C19.3972 9.6325 19.5085 9.58742 19.6247 9.58742C19.7409 9.58742 19.8522 9.6325 19.9334 9.71244L21.6399 11.354C21.7227 11.4319 21.7693 11.5386 21.7693 11.65C21.7693 11.7614 21.7227 11.868 21.6399 11.946L21.6377 11.9488Z" fill="black"/>
</svg>
